<?xml version="1.0" standalone="no"?>
<!DOCTYPE svg PUBLIC "-//W3C//DTD SVG 20010904//EN"
 "http://www.w3.org/TR/2001/REC-SVG-20010904/DTD/svg10.dtd">
<svg version="1.0" xmlns="http://www.w3.org/2000/svg"
 width="1152.000000pt" height="1152.000000pt" viewBox="0 0 1152.000000 1152.000000"
 preserveAspectRatio="xMidYMid meet">
<metadata>
Created by potrace 1.14, written by Peter Selinger 2001-2017
</metadata>
<g transform="translate(0.000000,1152.000000) scale(0.100000,-0.100000)"
fill="#000000" stroke="none">
<path d="M5754 10549 c-5 -8 -14 -23 -20 -34 -44 -79 -69 -124 -85 -147 -11
-14 -19 -31 -19 -36 0 -6 -3 -12 -7 -14 -5 -1 -18 -23 -31 -47 -36 -71 -57
-106 -64 -111 -4 -3 -12 -17 -18 -30 -5 -14 -19 -38 -30 -55 -11 -16 -23 -37
-27 -45 -4 -8 -33 -59 -65 -113 -32 -55 -58 -100 -58 -102 0 -3 -92 -162 -130
-225 -28 -48 -439 -761 -460 -799 -14 -25 -28 -47 -32 -49 -5 -2 -8 -8 -8 -13
0 -5 -11 -26 -23 -47 -13 -20 -35 -57 -49 -82 -14 -25 -48 -85 -77 -133 -28
-49 -51 -92 -51 -97 0 -5 -3 -10 -7 -12 -5 -1 -19 -23 -32 -48 -14 -25 -27
-47 -30 -50 -3 -3 -15 -23 -27 -45 -35 -67 -59 -110 -64 -115 -3 -3 -14 -21
-24 -40 -10 -19 -28 -52 -39 -72 -12 -21 -24 -38 -29 -38 -4 0 -8 -5 -8 -11 0
-14 -142 -263 -152 -267 -5 -2 -8 -8 -8 -13 0 -6 -22 -48 -50 -95 -27 -47 -50
-89 -50 -93 0 -5 -4 -11 -9 -13 -5 -1 -20 -25 -35 -53 -14 -27 -39 -72 -55
-100 -16 -27 -42 -72 -56 -100 -15 -27 -33 -57 -41 -66 -8 -9 -11 -19 -7 -22
3 -4 2 -7 -3 -7 -5 0 -22 -26 -39 -58 -16 -31 -33 -59 -36 -62 -8 -6 -36 -59
-45 -82 -3 -10 -10 -18 -15 -18 -5 0 -9 -6 -9 -14 0 -8 -7 -21 -15 -30 -9 -8
-16 -19 -17 -23 -2 -18 -22 -53 -30 -53 -4 0 -8 -9 -8 -19 0 -11 -4 -21 -8
-23 -5 -1 -24 -30 -42 -63 -37 -68 -52 -93 -86 -150 -13 -22 -35 -62 -50 -90
-15 -27 -30 -51 -35 -53 -5 -2 -9 -8 -9 -12 0 -5 -29 -59 -65 -121 -36 -61
-65 -116 -65 -120 0 -5 -5 -9 -11 -9 -5 0 -8 -4 -5 -9 3 -5 -1 -14 -9 -21 -8
-7 -15 -19 -15 -26 0 -8 -3 -14 -8 -14 -4 0 -13 -15 -21 -32 -8 -18 -19 -39
-25 -47 -6 -7 -27 -42 -46 -77 -19 -35 -65 -114 -101 -176 -37 -62 -77 -131
-89 -153 -13 -22 -31 -53 -41 -70 -10 -16 -30 -52 -44 -80 -15 -27 -33 -57
-41 -66 -8 -8 -14 -18 -14 -22 0 -4 -21 -41 -46 -84 -26 -43 -47 -83 -47 -90
0 -7 -6 -14 -14 -17 -7 -3 -13 -12 -13 -19 0 -8 -8 -25 -18 -38 -11 -13 -32
-49 -49 -79 -16 -30 -42 -74 -57 -98 -15 -24 -31 -53 -37 -65 -5 -12 -18 -35
-28 -52 -18 -30 -43 -73 -82 -142 -12 -21 -25 -42 -29 -48 -4 -5 -19 -30 -32
-55 -14 -25 -66 -116 -116 -203 -51 -87 -92 -162 -92 -168 0 -5 -4 -9 -9 -9
-5 0 -15 -15 -22 -32 -7 -18 -28 -55 -46 -83 -18 -27 -33 -55 -33 -62 0 -7 -4
-13 -10 -13 -5 0 -10 -4 -10 -10 0 -5 -19 -42 -43 -82 -24 -40 -46 -80 -50
-88 -4 -8 -16 -28 -27 -45 -10 -16 -25 -41 -33 -55 -7 -14 -58 -101 -112 -195
-162 -281 -205 -357 -205 -366 0 -5 -3 -9 -8 -9 -4 0 -18 -21 -31 -47 -14 -27
-32 -59 -42 -73 -16 -25 -47 -79 -102 -180 -16 -30 -35 -62 -42 -70 -7 -8 -19
-28 -27 -45 -8 -16 -48 -86 -88 -155 -107 -182 -118 -202 -132 -230 -12 -23
-57 -100 -86 -145 -6 -11 -15 -27 -19 -35 -3 -8 -21 -39 -40 -68 -18 -29 -33
-54 -33 -56 0 -3 -27 -50 -60 -106 -33 -56 -60 -103 -60 -106 0 -2 -18 -33
-40 -69 -22 -36 -40 -70 -40 -75 0 -6 -4 -10 -10 -10 -5 0 -10 -6 -10 -14 0
-8 -6 -21 -13 -28 -7 -7 -18 -24 -24 -38 -7 -14 -26 -47 -43 -75 -16 -27 -33
-57 -36 -65 -4 -8 -14 -23 -22 -32 -8 -10 -11 -18 -6 -18 5 0 4 -4 -1 -8 -13
-8 -95 -151 -95 -163 0 -5 -4 -9 -10 -9 -5 0 -10 -5 -10 -11 0 -6 -22 -48 -49
-93 -27 -44 -54 -91 -60 -103 l-12 -23 5541 0 5541 0 -17 33 c-9 17 -22 35
-28 39 -6 4 -8 8 -3 8 4 0 -4 18 -18 41 -28 44 -51 84 -98 169 -17 30 -34 56
-39 58 -4 2 -8 8 -8 12 0 5 -17 37 -37 72 -20 35 -36 65 -34 67 1 2 -1 7 -6
10 -5 3 -21 26 -34 51 -14 25 -35 61 -46 80 -11 19 -43 76 -71 125 -28 50 -56
95 -62 102 -5 7 -10 14 -10 17 0 3 -23 43 -50 90 -28 47 -50 89 -50 95 0 5 -6
14 -12 18 -7 4 -21 24 -30 43 -10 19 -33 62 -53 95 -20 33 -38 68 -42 78 -3 9
-9 17 -14 17 -5 0 -9 6 -9 13 0 6 -18 40 -39 73 -21 34 -42 71 -46 83 -3 11
-11 21 -16 21 -5 0 -9 9 -9 20 0 11 -3 20 -8 20 -4 0 -18 21 -31 47 -14 27
-34 62 -46 78 -12 17 -29 46 -39 65 -9 19 -26 49 -36 65 -11 17 -26 44 -34 60
-8 17 -29 53 -46 80 -16 28 -33 58 -36 67 -4 10 -10 18 -14 18 -4 0 -10 8 -13
18 -4 9 -21 42 -39 73 -36 62 -194 335 -218 378 -8 14 -27 46 -41 71 -29 48
-64 110 -86 150 -8 14 -25 43 -39 65 -14 22 -30 52 -37 68 -6 15 -15 27 -19
27 -4 0 -8 5 -8 11 0 6 -20 44 -45 85 -25 40 -45 78 -45 84 0 5 -5 10 -11 10
-5 0 -8 4 -5 9 4 5 2 11 -2 13 -5 1 -22 28 -39 58 -88 160 -227 395 -234 398
-5 2 -9 12 -9 23 0 10 -5 19 -11 19 -5 0 -7 5 -4 10 3 6 2 10 -3 10 -5 0 -12
8 -16 18 -3 9 -14 31 -23 47 -54 90 -131 222 -136 235 -4 8 -16 29 -27 45 -11
17 -30 48 -42 70 -12 22 -28 49 -35 60 -7 11 -15 27 -19 35 -8 14 -167 293
-184 320 -5 8 -26 44 -47 80 -21 36 -43 74 -50 85 -7 11 -17 31 -23 45 -6 13
-14 27 -18 30 -4 3 -15 21 -25 40 -34 64 -52 95 -58 100 -3 3 -22 34 -41 70
-20 36 -45 81 -56 100 -12 19 -27 46 -35 60 -8 14 -55 96 -106 184 -50 87 -91
162 -91 167 0 5 -4 9 -9 9 -5 0 -15 16 -22 35 -7 19 -17 35 -21 35 -4 0 -8 7
-8 15 0 8 -3 15 -8 15 -4 0 -13 15 -21 33 -8 17 -27 51 -42 73 -16 23 -25 44
-22 48 4 3 1 6 -5 6 -6 0 -14 9 -17 21 -4 11 -28 55 -54 97 -26 43 -54 92 -62
110 -7 17 -16 32 -19 32 -4 0 -17 22 -31 50 -13 27 -28 50 -32 50 -5 0 -6 4
-3 9 3 5 -1 14 -9 21 -8 7 -15 19 -15 26 0 8 -4 14 -8 14 -5 0 -14 16 -22 35
-8 19 -16 35 -19 35 -4 0 -12 15 -20 33 -8 17 -17 34 -20 37 -3 3 -17 25 -30
50 -43 80 -46 84 -58 98 -7 7 -13 19 -13 27 0 7 -3 15 -7 17 -5 2 -19 23 -32
48 -24 45 -103 182 -121 210 -6 8 -16 26 -22 40 -7 14 -24 43 -38 65 -15 22
-30 47 -33 55 -4 8 -18 33 -32 55 -14 22 -28 47 -32 55 -6 12 -143 250 -245
425 -16 28 -32 58 -35 68 -3 9 -10 17 -15 17 -5 0 -6 5 -3 10 3 6 1 10 -4 10
-6 0 -11 7 -11 15 0 8 -4 15 -10 15 -5 0 -10 5 -10 11 0 6 -27 56 -59 110 -33
54 -65 112 -73 129 -7 16 -16 30 -19 30 -4 0 -12 15 -19 33 -8 17 -19 39 -25
47 -7 8 -24 36 -39 63 -14 26 -38 68 -52 95 -15 26 -33 55 -42 65 -8 9 -12 17
-7 17 4 0 2 7 -5 15 -12 15 -160 266 -160 272 0 2 -12 22 -27 46 -15 23 -37
60 -49 82 -43 81 -59 110 -65 115 -3 3 -9 12 -12 20 -4 8 -21 38 -37 65 -17
28 -36 61 -43 75 -6 14 -17 31 -24 38 -7 7 -13 19 -13 26 0 8 -6 18 -13 24 -7
6 -24 33 -37 61 -14 28 -28 51 -32 51 -5 0 -8 4 -8 9 0 5 -23 49 -51 98 -66
112 -79 135 -119 208 -19 33 -36 62 -39 65 -4 3 -16 23 -28 45 -11 22 -30 56
-42 75 -12 19 -27 48 -35 64 -10 22 -15 25 -22 15z"/>
</g>
</svg>
