<svg width="719" height="440" viewBox="0 0 719 440" fill="none" xmlns="http://www.w3.org/2000/svg">
<path d="M682.679 255.726L372.551 433.203C365.189 437.416 356.151 437.43 348.776 433.241L36.36 255.763C20.2481 246.61 20.146 223.427 36.1766 214.133L348.592 32.996C356.06 28.6657 365.279 28.6805 372.734 33.0346L682.863 214.172C698.805 223.483 698.703 246.556 682.679 255.726Z" fill="#078457"/>
<path d="M688.684 245.952L370.571 427.999C364.437 431.509 356.905 431.521 350.759 428.03L30.3 245.983C16.8734 238.356 16.7883 219.036 30.1471 211.291L350.605 25.4911C356.829 21.8825 364.512 21.8948 370.724 25.5232L688.837 211.324C702.122 219.083 702.037 238.31 688.684 245.952Z" fill="#C5E8DA"/>
<path d="M586.846 303.43L608.497 290.968L250.125 82.907L227.756 95.8659L586.846 303.43Z" fill="#868686"/>
<path d="M454.825 378.945L476.476 366.482L118.105 158.422L95.7354 171.381L454.825 378.945Z" fill="#868686"/>
<path d="M141.679 310.295L120.028 297.833L479.646 88.7156L501.825 101.917L141.679 310.295Z" fill="#868686"/>
<path d="M400.962 224.958L379.839 236.998L475.42 293.08L497.599 280.406L400.962 224.958Z" fill="#868686"/>
<path d="M399.905 336.382L378.782 324.342L474.363 268.26L496.543 280.934L399.905 336.382Z" fill="#868686"/>
<path d="M400.962 248.722L379.839 236.682L475.42 180.6L497.599 193.274L400.962 248.722Z" fill="#868686"/>
<path d="M205.574 183.241L184.451 171.201L280.032 115.119L302.212 127.793L205.574 183.241Z" fill="#868686"/>
<path d="M178.115 199.083L156.992 187.043L253.102 130.961L275.281 143.107L178.115 199.083Z" fill="#868686"/>
<path d="M497.599 193.274L475.42 180.601L556.215 134.13L578.394 146.276L497.599 193.274Z" fill="#868686"/>
<path d="M312.246 387.605L290.595 375.459L370.862 328.461L393.041 340.607L312.246 387.605Z" fill="#868686"/>
<path d="M296.403 397.11L274.224 384.436L355.019 337.966L377.198 350.112L296.403 397.11Z" fill="#868686"/>
<path d="M321.753 295.72L299.574 283.047L379.841 236.682L402.548 248.722L321.753 295.72Z" fill="#868686"/>
<path d="M551.99 162.545V193.701L569.417 203.734V174.263C569.417 167.926 562.024 164.657 557.799 162.545C554.419 160.855 552.518 162.117 551.99 162.545Z" fill="black"/>
<path d="M556.13 159.325L551.99 162.545C553.574 161.489 555.687 161.766 556.743 162.118C560.791 163.811 568.994 168.59 569.417 174.163V203.735L575.225 199.51V172.244C575.225 171.424 575.028 170.611 574.62 169.899C568.435 159.087 561.091 157.793 557.485 158.629C556.984 158.745 556.536 159.009 556.13 159.325Z" fill="#606060"/>
<path d="M517.136 213.341C528.638 206.652 552.271 193.697 552.689 193.274L569.943 203.308L534.912 223.903L517.136 213.341Z" fill="#7EAFA2"/>
<path d="M544.596 228.127C556.098 221.438 579.731 208.483 580.149 208.06L597.403 218.093L562.372 238.688L544.596 228.127Z" fill="#7EAFA2"/>
<path d="M572.053 245.025C583.555 238.336 607.188 225.381 607.606 224.958L624.86 234.992L589.829 255.587L572.053 245.025Z" fill="#7EAFA2"/>
<path d="M102.071 180.5V211.657L119.498 221.69V192.219C119.498 185.882 112.105 182.613 107.88 180.5C104.5 178.81 102.599 180.073 102.071 180.5Z" fill="black"/>
<path d="M106.211 177.28L102.071 180.5C103.656 179.444 105.768 179.721 106.824 180.073C110.873 181.766 119.075 186.545 119.498 192.118V221.69L125.307 217.465V190.199C125.307 189.379 125.109 188.566 124.702 187.854C118.517 177.042 111.172 175.748 107.567 176.584C107.065 176.7 106.617 176.964 106.211 177.28Z" fill="#606060"/>
<path d="M212.968 245.981V277.137L230.394 287.17V257.699C230.394 251.362 223.001 248.093 218.777 245.981C215.397 244.291 213.496 245.553 212.968 245.981Z" fill="black"/>
<path d="M217.108 242.761L212.968 245.981C214.552 244.925 216.664 245.201 217.72 245.553C221.769 247.246 229.972 252.026 230.394 257.598V287.17L236.203 282.946V255.68C236.203 254.859 236.006 254.047 235.598 253.334C229.413 242.523 222.068 241.229 218.463 242.065C217.962 242.181 217.514 242.445 217.108 242.761Z" fill="#606060"/>
<path d="M544.595 197.399V228.555L562.021 238.588V209.117C562.021 202.78 554.628 199.511 550.404 197.399C547.024 195.709 545.123 196.971 544.595 197.399Z" fill="black"/>
<path d="M548.735 194.179L544.595 197.399C546.179 196.343 548.291 196.62 549.347 196.972C553.396 198.665 561.599 203.444 562.021 209.017V238.589L567.83 234.364V207.098C567.83 206.277 567.632 205.465 567.225 204.753C561.04 193.941 553.695 192.647 550.09 193.483C549.589 193.599 549.141 193.863 548.735 194.179Z" fill="#606060"/>
<path d="M351.32 10.4615V41.6178L368.747 51.6512V22.1799C368.747 15.843 361.354 12.5738 357.129 10.4615C353.749 8.77166 351.848 10.0342 351.32 10.4615Z" fill="black"/>
<path d="M355.46 7.24127L351.32 10.4612C352.905 9.40502 355.017 9.68189 356.073 10.0339C360.122 11.7269 368.324 16.5062 368.747 22.0788V51.6509L374.556 47.4263V20.1604C374.556 19.3397 374.358 18.5273 373.951 17.815C367.766 7.00334 360.421 5.70917 356.816 6.54505C356.314 6.66124 355.866 6.92544 355.46 7.24127Z" fill="#606060"/>
<path d="M315.94 61.6793C327.443 54.9904 351.076 42.035 351.494 41.6125L368.748 51.6459L333.717 72.2408L315.94 61.6793Z" fill="#7EAFA2"/>
<path d="M343.93 76.0431C355.432 69.3542 379.065 56.3988 379.483 55.9763L396.737 66.0097L361.706 86.6046L343.93 76.0431Z" fill="#7EAFA2"/>
<path d="M371.389 92.941C382.891 86.2521 406.524 73.2967 406.942 72.8743L424.196 82.9077L389.165 103.503L371.389 92.941Z" fill="#7EAFA2"/>
<path d="M317.524 52.7059V83.8622L334.951 93.8956V64.4243C334.951 58.0874 327.558 54.8182 323.333 52.7059C319.954 51.016 318.052 52.2786 317.524 52.7059Z" fill="black"/>
<path d="M321.664 49.4866L317.524 52.7065C319.109 51.6504 321.221 51.9272 322.277 52.2793C326.326 53.9723 334.528 58.7515 334.951 64.3241V93.8962L340.76 89.6717V62.4057C340.76 61.585 340.562 60.7727 340.155 60.0603C333.97 49.2487 326.625 47.9545 323.02 48.7904C322.519 48.9066 322.07 49.1708 321.664 49.4866Z" fill="#606060"/>
<path d="M579.448 177.331V208.487L596.875 218.52V189.049C596.875 182.712 589.482 179.443 585.257 177.331C581.877 175.641 579.976 176.903 579.448 177.331Z" fill="black"/>
<path d="M583.588 174.112L579.448 177.332C581.032 176.275 583.145 176.552 584.201 176.904C588.249 178.597 596.452 183.377 596.875 188.949V218.521L602.683 214.297V187.031C602.683 186.21 602.486 185.398 602.078 184.685C595.893 173.874 588.549 172.58 584.943 173.415C584.442 173.532 583.994 173.796 583.588 174.112Z" fill="#606060"/>
<path d="M129.528 195.286V226.443L146.955 236.476V207.005C146.955 200.668 139.562 197.399 135.337 195.286C131.957 193.597 130.056 194.859 129.528 195.286Z" fill="black"/>
<path d="M103.215 242.919L129.669 226.46L147.394 235.956L122.371 251.524C116.991 254.872 110.309 250.322 106.284 247.851C103.064 245.874 103.132 243.593 103.215 242.919Z" fill="#7EAFA2"/>
<path d="M133.669 192.066L129.529 195.286C131.114 194.23 133.226 194.507 134.282 194.859C138.331 196.552 146.533 201.331 146.956 206.904V236.476L152.765 232.251V204.986C152.765 204.165 152.567 203.353 152.16 202.64C145.975 191.829 138.63 190.534 135.025 191.37C134.523 191.486 134.075 191.751 133.669 192.066Z" fill="#606060"/>
<path d="M129.53 195.286V226.443L146.957 236.476V207.005C146.957 200.668 139.564 197.399 135.339 195.286C131.959 193.597 130.058 194.859 129.53 195.286Z" fill="black"/>
<path d="M75.4232 226.965L102.197 211.765L119.394 221.592C112.84 225.378 98.677 233.656 94.2873 236.192C88.8003 239.362 82.2712 234.596 78.329 231.995C75.1751 229.913 75.3174 227.636 75.4232 226.965Z" fill="#7EAFA2"/>
<path d="M133.67 192.066L129.53 195.286C131.114 194.23 133.227 194.507 134.283 194.859C138.331 196.552 146.534 201.331 146.957 206.904V236.476L152.765 232.251V204.986C152.765 204.165 152.568 203.353 152.161 202.64C145.976 191.829 138.631 190.534 135.026 191.37C134.524 191.486 134.076 191.751 133.67 192.066Z" fill="#606060"/>
<path d="M205.574 311.563C217.077 304.874 240.709 291.919 241.128 291.497L258.382 301.53L223.351 322.125L205.574 311.563Z" fill="#7EAFA2"/>
<path d="M234.092 327.405C245.594 320.716 269.227 307.761 269.645 307.339L286.899 317.372L251.869 337.967L234.092 327.405Z" fill="#7EAFA2"/>
<path d="M199.236 341.135C210.739 334.446 221.525 328.884 221.943 328.462L239.37 338.495L217.013 351.697L199.236 341.135Z" fill="#7EAFA2"/>
<path d="M225.641 356.45C237.143 349.761 248.458 344.198 248.876 343.776L266.302 353.281L243.067 366.483L225.641 356.45Z" fill="#7EAFA2"/>
<path d="M254.155 372.82C265.658 366.131 275.916 361.097 276.334 360.674L293.761 370.18L272.638 383.381L254.155 372.82Z" fill="#7EAFA2"/>
<path d="M578.395 273.542C589.897 266.853 599.627 260.235 600.046 259.812L617.472 269.846L596.349 284.104L578.395 273.542Z" fill="#7EAFA2"/>
<path d="M523.474 241.858C534.976 235.169 544.706 228.55 545.125 228.128L562.551 238.161L541.428 252.419L523.474 241.858Z" fill="#7EAFA2"/>
<path d="M240.426 260.767V291.924L257.852 301.957V272.486C257.852 266.149 250.459 262.88 246.235 260.767C242.855 259.078 240.954 260.34 240.426 260.767Z" fill="black"/>
<path d="M244.566 257.547L240.426 260.767C242.01 259.711 244.122 259.988 245.178 260.34C249.227 262.033 257.43 266.812 257.852 272.385V301.957L263.661 297.732V270.467C263.661 269.646 263.464 268.833 263.056 268.121C256.871 257.309 249.526 256.015 245.921 256.851C245.42 256.967 244.972 257.232 244.566 257.547Z" fill="#606060"/>
<path d="M221.415 297.732V328.888L238.841 338.922V309.45C238.841 303.114 231.448 299.844 227.224 297.732C223.844 296.042 221.943 297.305 221.415 297.732Z" fill="black"/>
<path d="M225.555 294.512L221.415 297.732C222.999 296.676 225.112 296.953 226.168 297.305C230.216 298.998 238.419 303.777 238.841 309.35V338.922L244.65 334.697V307.431C244.65 306.611 244.453 305.798 244.045 305.086C237.86 294.274 230.516 292.98 226.91 293.816C226.409 293.932 225.961 294.196 225.555 294.512Z" fill="#606060"/>
<path d="M248.878 312.518V343.674L266.304 353.708V324.237C266.304 317.9 258.911 314.63 254.687 312.518C251.307 310.828 249.406 312.091 248.878 312.518Z" fill="black"/>
<path d="M253.018 309.298L248.878 312.518C250.462 311.462 252.574 311.739 253.631 312.091C257.679 313.784 265.882 318.563 266.304 324.136V353.708L272.113 349.483V322.217C272.113 321.397 271.916 320.584 271.508 319.872C265.323 309.06 257.979 307.766 254.373 308.602C253.872 308.718 253.424 308.983 253.018 309.298Z" fill="#606060"/>
<path d="M378.784 25.2462V56.4025L396.211 66.4359V36.9646C396.211 30.6277 388.818 27.3585 384.593 25.2462C381.213 23.5563 379.312 24.8189 378.784 25.2462Z" fill="black"/>
<path d="M382.924 22.0264L378.784 25.2463C380.368 24.1902 382.481 24.467 383.537 24.8191C387.585 26.5121 395.788 31.2913 396.211 36.8639V66.436L402.019 62.2115V34.9455C402.019 34.1248 401.822 33.3125 401.414 32.6001C395.229 21.7885 387.885 20.4943 384.279 21.3302C383.778 21.4464 383.33 21.7106 382.924 22.0264Z" fill="#606060"/>
<path d="M344.983 67.4918V98.6481L362.41 108.681V79.2102C362.41 72.8733 355.017 69.6041 350.792 67.4918C347.413 65.8019 345.511 67.0645 344.983 67.4918Z" fill="black"/>
<path d="M349.123 64.272L344.983 67.4919C346.568 66.4358 348.68 66.7126 349.736 67.0647C353.785 68.7577 361.987 73.5369 362.41 79.1095V108.682L368.219 104.457V77.1911C368.219 76.3704 368.021 75.5581 367.614 74.8457C361.429 64.0341 354.084 62.7399 350.479 63.5758C349.978 63.692 349.529 63.9562 349.123 64.272Z" fill="#606060"/>
<path d="M426.307 177.433C437.809 170.744 500.875 135.609 501.293 135.187L507.63 139.939L434.756 182.185L426.307 177.433Z" fill="#7EAFA2"/>
<path d="M524.521 99.1763V130.333L507.094 140.366V110.895C507.094 104.558 514.487 101.289 518.712 99.1763C522.091 97.4865 523.992 98.7491 524.521 99.1763Z" fill="black"/>
<path d="M520.381 95.9561L524.521 99.176C522.936 98.1199 520.824 98.3967 519.768 98.7488C515.719 100.442 507.517 105.221 507.094 110.794V140.366L501.285 136.141V108.875C501.285 108.055 501.483 107.242 501.89 106.53C508.075 95.7182 515.42 94.424 519.025 95.2599C519.526 95.3761 519.975 95.6403 520.381 95.9561Z" fill="#606060"/>
<path d="M497.063 113.962V145.118L479.637 155.152V125.68C479.637 119.344 487.03 116.074 491.255 113.962C494.634 112.272 496.535 113.535 497.063 113.962Z" fill="black"/>
<path d="M492.924 110.742L497.063 113.962C495.479 112.906 493.367 113.183 492.311 113.535C488.262 115.228 480.06 120.007 479.637 125.58V155.152L473.828 150.928V123.662C473.828 122.841 474.026 122.029 474.433 121.316C480.618 110.505 487.963 109.21 491.568 110.046C492.069 110.162 492.517 110.427 492.924 110.742Z" fill="#606060"/>
<path d="M469.607 130.861V162.017L452.181 172.051V142.58C452.181 136.243 459.574 132.973 463.799 130.861C467.178 129.171 469.079 130.434 469.607 130.861Z" fill="black"/>
<path d="M465.468 127.641L469.607 130.861C468.023 129.805 465.911 130.082 464.855 130.434C460.806 132.127 452.603 136.906 452.181 142.479V172.051L446.372 167.826V140.56C446.372 139.74 446.57 138.927 446.977 138.215C453.162 127.403 460.507 126.109 464.112 126.945C464.613 127.061 465.061 127.325 465.468 127.641Z" fill="#606060"/>
<path d="M136.394 169.511C147.896 162.823 210.962 127.688 211.38 127.266L217.717 132.018L144.843 174.264L136.394 169.511Z" fill="#7EAFA2"/>
<path d="M235.144 90.7279V121.884L217.717 131.918V102.446C217.717 96.1094 225.11 92.8401 229.335 90.7279C232.714 89.038 234.615 90.3006 235.144 90.7279Z" fill="black"/>
<path d="M231.004 87.5084L235.144 90.7283C233.559 89.6721 231.447 89.949 230.391 90.301C226.342 91.994 218.14 96.7733 217.717 102.346V131.918L211.908 127.693V100.427C211.908 99.6068 212.106 98.7944 212.513 98.082C218.698 87.2704 226.043 85.9763 229.648 86.8121C230.149 86.9283 230.598 87.1925 231.004 87.5084Z" fill="#606060"/>
<path d="M207.686 105.514V136.67L190.259 146.703V117.232C190.259 110.895 197.652 107.626 201.877 105.514C205.256 103.824 207.157 105.086 207.686 105.514Z" fill="black"/>
<path d="M203.546 102.294L207.686 105.514C206.101 104.458 203.989 104.735 202.933 105.087C198.884 106.78 190.682 111.559 190.259 117.132V146.704L184.45 142.48V115.214C184.45 114.393 184.648 113.581 185.055 112.868C191.24 102.057 198.585 100.762 202.19 101.598C202.691 101.714 203.14 101.979 203.546 102.294Z" fill="#606060"/>
<path d="M180.228 122.413V153.569L162.801 163.603V134.132C162.801 127.795 170.194 124.525 174.419 122.413C177.798 120.723 179.699 121.986 180.228 122.413Z" fill="black"/>
<path d="M176.088 119.193L180.228 122.413C178.643 121.357 176.531 121.634 175.475 121.986C171.426 123.679 163.224 128.458 162.801 134.03V163.603L156.992 159.378V132.112C156.992 131.291 157.19 130.479 157.597 129.767C163.782 118.955 171.127 117.661 174.732 118.497C175.233 118.613 175.682 118.877 176.088 119.193Z" fill="#606060"/>
<path d="M209.796 212.286C221.298 205.597 284.364 170.462 284.782 170.04L291.119 174.793L218.245 217.039L209.796 212.286Z" fill="#7EAFA2"/>
<path d="M305.909 135.087V166.243L288.483 176.277V146.805C288.483 140.469 295.876 137.199 300.1 135.087C303.48 133.397 305.381 134.66 305.909 135.087Z" fill="black"/>
<path d="M301.769 131.867L305.909 135.087C304.325 134.031 302.213 134.308 301.157 134.66C297.108 136.353 288.905 141.132 288.483 146.705V176.277L282.674 172.052V144.786C282.674 143.966 282.871 143.153 283.279 142.441C289.464 131.629 296.809 130.335 300.414 131.171C300.915 131.287 301.363 131.551 301.769 131.867Z" fill="#606060"/>
<path d="M278.44 149.872V181.029L261.014 191.062V161.591C261.014 155.254 268.407 151.985 272.632 149.872C276.011 148.183 277.912 149.445 278.44 149.872Z" fill="#94030D"/>
<path d="M274.301 146.653L278.44 149.873C276.856 148.816 274.744 149.093 273.688 149.445C269.639 151.138 261.436 155.918 261.014 161.49V191.062L255.205 186.838V159.572C255.205 158.751 255.403 157.939 255.81 157.226C261.995 146.415 269.34 145.121 272.945 145.956C273.446 146.073 273.894 146.337 274.301 146.653Z" fill="#D20513"/>
<path d="M250.983 166.77V197.926L233.557 207.96V178.489C233.557 172.152 240.95 168.882 245.175 166.77C248.554 165.08 250.455 166.343 250.983 166.77Z" fill="black"/>
<path d="M246.843 163.551L250.983 166.77C249.399 165.714 247.287 165.991 246.231 166.343C242.182 168.036 233.979 172.815 233.557 178.388V207.96L227.748 203.736V176.47C227.748 175.649 227.946 174.837 228.353 174.124C234.538 163.313 241.883 162.018 245.488 162.854C245.989 162.971 246.437 163.235 246.843 163.551Z" fill="#606060"/>
<path d="M289.006 256.644C300.508 249.955 363.574 214.82 363.992 214.398L370.329 219.151L297.455 261.396L289.006 256.644Z" fill="#7EAFA2"/>
<path d="M384.061 180.5V211.657L366.634 221.69V192.219C366.634 185.882 374.027 182.613 378.252 180.5C381.631 178.81 383.532 180.073 384.061 180.5Z" fill="black"/>
<path d="M379.921 177.28L384.061 180.5C382.476 179.444 380.364 179.721 379.308 180.073C375.259 181.766 367.057 186.545 366.634 192.118V221.69L360.825 217.465V190.199C360.825 189.379 361.023 188.566 361.43 187.854C367.615 177.042 374.96 175.748 378.565 176.584C379.066 176.7 379.515 176.964 379.921 177.28Z" fill="#606060"/>
<path d="M356.602 195.287V226.443L339.175 236.477V207.005C339.175 200.668 346.568 197.399 350.793 195.287C354.172 193.597 356.073 194.86 356.602 195.287Z" fill="black"/>
<path d="M352.462 192.067L356.602 195.287C355.017 194.231 352.905 194.508 351.849 194.86C347.8 196.553 339.598 201.332 339.175 206.904V236.477L333.366 232.252V204.986C333.366 204.165 333.564 203.353 333.971 202.641C340.156 191.829 347.501 190.535 351.106 191.371C351.607 191.487 352.056 191.751 352.462 192.067Z" fill="#606060"/>
<path d="M329.143 212.184V243.34L311.716 253.373V223.902C311.716 217.565 319.109 214.296 323.334 212.184C326.713 210.494 328.615 211.756 329.143 212.184Z" fill="black"/>
<path d="M325.003 208.964L329.143 212.184C327.558 211.128 325.446 211.405 324.39 211.757C320.341 213.45 312.139 218.229 311.716 223.802V253.374L305.907 249.149V221.883C305.907 221.063 306.105 220.25 306.512 219.538C312.697 208.726 320.042 207.432 323.647 208.268C324.148 208.384 324.597 208.648 325.003 208.964Z" fill="#606060"/>
<path d="M606.909 194.229V225.386L624.336 235.419V205.948C624.336 199.611 616.943 196.342 612.718 194.229C609.338 192.539 607.437 193.802 606.909 194.229Z" fill="black"/>
<path d="M611.049 191.01L606.909 194.229C608.493 193.173 610.606 193.45 611.662 193.802C615.71 195.495 623.913 200.274 624.336 205.847V235.419L630.144 231.195V203.929C630.144 203.108 629.947 202.296 629.539 201.583C623.354 190.772 616.01 189.477 612.404 190.313C611.903 190.43 611.455 190.694 611.049 191.01Z" fill="#606060"/>
<path d="M156.995 212.184V243.34L174.422 253.374V223.902C174.422 217.565 167.029 214.296 162.804 212.184C159.424 210.494 157.523 211.757 156.995 212.184Z" fill="black"/>
<path d="M161.135 208.964L156.995 212.184C158.579 211.128 160.692 211.405 161.748 211.757C165.796 213.45 173.999 218.229 174.422 223.802V253.374L180.23 249.149V221.883C180.23 221.063 180.033 220.25 179.625 219.538C173.44 208.726 166.096 207.432 162.49 208.268C161.989 208.384 161.541 208.648 161.135 208.964Z" fill="#606060"/>
<path d="M267.886 277.665V308.821L285.312 318.855V289.384C285.312 283.047 277.919 279.777 273.695 277.665C270.315 275.975 268.414 277.238 267.886 277.665Z" fill="black"/>
<path d="M272.026 274.445L267.886 277.665C269.47 276.609 271.582 276.886 272.638 277.238C276.687 278.931 284.89 283.71 285.312 289.283V318.855L291.121 314.63V287.364C291.121 286.544 290.924 285.731 290.516 285.019C284.331 274.207 276.986 272.913 273.381 273.749C272.88 273.865 272.432 274.13 272.026 274.445Z" fill="#606060"/>
<path d="M276.332 329.418V360.574L293.758 370.607V341.136C293.758 334.799 286.365 331.53 282.141 329.418C278.761 327.728 276.86 328.991 276.332 329.418Z" fill="black"/>
<path d="M280.472 326.198L276.332 329.418C277.916 328.362 280.029 328.639 281.085 328.991C285.133 330.684 293.336 335.463 293.758 341.036V370.608L299.567 366.383V339.117C299.567 338.296 299.37 337.484 298.962 336.772C292.777 325.96 285.433 324.666 281.827 325.502C281.326 325.618 280.878 325.882 280.472 326.198Z" fill="#606060"/>
<path d="M446.375 349.584C457.878 342.896 520.943 307.761 521.361 307.339L527.698 312.091L454.824 354.337L446.375 349.584Z" fill="#7EAFA2"/>
<path d="M330.197 416.121C341.7 409.432 404.765 374.298 405.184 373.875L411.521 378.628L338.646 420.874L330.197 416.121Z" fill="#7EAFA2"/>
<path d="M532.979 277.665V308.821L515.552 318.855V289.383C515.552 283.046 522.945 279.777 527.17 277.665C530.549 275.975 532.45 277.238 532.979 277.665Z" fill="black"/>
<path d="M528.839 274.445L532.979 277.665C531.394 276.609 529.282 276.886 528.226 277.238C524.177 278.931 515.975 283.71 515.552 289.283V318.855L509.743 314.63V287.364C509.743 286.544 509.941 285.731 510.348 285.019C516.533 274.207 523.878 272.913 527.483 273.749C527.984 273.865 528.433 274.13 528.839 274.445Z" fill="#606060"/>
<path d="M505.517 292.452V323.608L488.09 333.641V304.17C488.09 297.833 495.483 294.564 499.708 292.452C503.087 290.762 504.989 292.024 505.517 292.452Z" fill="black"/>
<path d="M501.377 289.232L505.517 292.452C503.932 291.396 501.82 291.672 500.764 292.024C496.715 293.717 488.513 298.497 488.09 304.069V333.641L482.281 329.417V302.151C482.281 301.33 482.479 300.518 482.886 299.805C489.071 288.994 496.416 287.7 500.021 288.536C500.522 288.652 500.971 288.916 501.377 289.232Z" fill="#606060"/>
<path d="M478.055 309.349V340.506L460.628 350.539V321.068C460.628 314.731 468.021 311.461 472.246 309.349C475.626 307.659 477.527 308.922 478.055 309.349Z" fill="black"/>
<path d="M473.915 306.13L478.055 309.35C476.47 308.293 474.358 308.57 473.302 308.922C469.253 310.615 461.051 315.395 460.628 320.967V350.539L454.819 346.315V319.049C454.819 318.228 455.017 317.416 455.424 316.703C461.609 305.892 468.954 304.598 472.559 305.433C473.061 305.55 473.509 305.814 473.915 306.13Z" fill="#606060"/>
<path d="M414.692 345.259V376.415L397.266 386.449V356.977C397.266 350.64 404.659 347.371 408.884 345.259C412.263 343.569 414.164 344.832 414.692 345.259Z" fill="black"/>
<path d="M410.552 342.039L414.692 345.259C413.108 344.203 410.996 344.479 409.94 344.832C405.891 346.525 397.688 351.304 397.266 356.876V386.448L391.457 382.224V354.958C391.457 354.137 391.655 353.325 392.062 352.613C398.247 341.801 405.592 340.507 409.197 341.343C409.698 341.459 410.146 341.723 410.552 342.039Z" fill="#606060"/>
<path d="M387.229 360.044V391.2L369.802 401.234V371.762C369.802 365.426 377.195 362.156 381.42 360.044C384.799 358.354 386.7 359.617 387.229 360.044Z" fill="black"/>
<path d="M383.089 356.825L387.229 360.044C385.644 358.988 383.532 359.265 382.476 359.617C378.427 361.31 370.225 366.089 369.802 371.662V401.234L363.993 397.01V369.744C363.993 368.923 364.191 368.111 364.598 367.398C370.783 356.587 378.128 355.292 381.733 356.128C382.234 356.244 382.683 356.509 383.089 356.825Z" fill="#606060"/>
<path d="M359.771 376.943V408.099L342.344 418.133V388.661C342.344 382.324 349.737 379.055 353.962 376.943C357.341 375.253 359.242 376.516 359.771 376.943Z" fill="black"/>
<path d="M355.631 373.723L359.771 376.943C358.186 375.887 356.074 376.164 355.018 376.516C350.969 378.209 342.767 382.988 342.344 388.561V418.133L336.535 413.908V386.642C336.535 385.822 336.733 385.009 337.14 384.297C343.325 373.485 350.67 372.191 354.275 373.027C354.776 373.143 355.225 373.407 355.631 373.723Z" fill="#606060"/>
<path d="M599.513 229.083V260.239L616.939 270.272V240.801C616.939 234.464 609.546 231.195 605.322 229.083C601.942 227.393 600.041 228.655 599.513 229.083Z" fill="black"/>
<path d="M603.653 225.863L599.513 229.083C601.097 228.027 603.209 228.303 604.265 228.655C608.314 230.349 616.517 235.128 616.939 240.7V270.272L622.748 266.048V238.782C622.748 237.961 622.55 237.149 622.143 236.437C615.958 225.625 608.613 224.331 605.008 225.167C604.507 225.283 604.059 225.547 603.653 225.863Z" fill="#606060"/>
<path d="M406.242 42.1444V73.3007L423.669 83.334V53.8628C423.669 47.5259 416.276 44.2567 412.051 42.1444C408.671 40.4545 406.77 41.7171 406.242 42.1444Z" fill="black"/>
<path d="M410.382 38.9246L406.242 42.1445C407.826 41.0884 409.939 41.3652 410.995 41.7173C415.043 43.4103 423.246 48.1895 423.669 53.7621V83.3342L429.477 79.1096V51.8437C429.477 51.023 429.28 50.2107 428.872 49.4983C422.687 38.6867 415.343 37.3925 411.737 38.2284C411.236 38.3446 410.788 38.6088 410.382 38.9246Z" fill="#606060"/>
<path d="M372.442 84.3914V115.548L389.869 125.581V96.1098C389.869 89.773 382.476 86.5037 378.251 84.3914C374.872 82.7016 372.97 83.9642 372.442 84.3914Z" fill="black"/>
<path d="M376.582 81.1712L372.442 84.3911C374.027 83.335 376.139 83.6118 377.195 83.9638C381.244 85.6569 389.446 90.4361 389.869 96.0087V125.581L395.678 121.356V94.0903C395.678 93.2696 395.48 92.4573 395.073 91.7449C388.888 80.9333 381.543 79.6391 377.938 80.475C377.436 80.5912 376.988 80.8554 376.582 81.1712Z" fill="#606060"/>
<path d="M284.256 102.974C295.758 96.2855 317.106 84.2806 317.524 83.8582L334.951 93.8915L301.682 113.008L284.256 102.974Z" fill="#7EAFA2"/>
<path d="M310.658 118.183C322.161 111.494 344.565 99.0665 344.983 98.644L362.409 108.677L328.085 128.216L310.658 118.183Z" fill="#7EAFA2"/>
<path d="M337.592 133.602C349.094 126.914 372.026 116.07 372.445 115.648L389.343 125.153L355.546 144.164L337.592 133.602Z" fill="#7EAFA2"/>
<path d="M122.137 262.98C133.639 256.291 157.272 243.336 157.69 242.913L174.944 252.947L139.913 273.542L122.137 262.98Z" fill="#7EAFA2"/>
<path d="M177.055 296.777C188.557 290.088 212.19 277.133 212.608 276.71L229.862 286.744L194.831 307.339L177.055 296.777Z" fill="#7EAFA2"/>
<ellipse cx="55.0563" cy="227.762" rx="21.6158" ry="12.4707" fill="#7EAFA2"/>
<path d="M51.7305 226.931V206.978H57.5501V226.931C54.2246 229.591 52.2847 228.039 51.7305 226.931Z" fill="#3A2D13"/>
<circle cx="55.8883" cy="174.554" r="34.0865" fill="#078457"/>
<path d="M34.2723 175.385C28.2864 156.762 42.309 144.901 50.0685 141.299C16.8133 147.95 22.6331 174.554 21.8018 175.385C21.8018 196.003 36.2123 205.038 43.4176 206.977C70.6868 212.963 83.0466 198.387 85.8179 190.35C79.832 195.671 70.0217 197.001 65.8648 197.001C57.8281 197.555 40.2583 194.008 34.2723 175.385Z" fill="#055F3F"/>
<ellipse cx="141.58" cy="155.09" rx="5.72699" ry="3.33207" fill="#7EAFA2"/>
<circle cx="141.531" cy="150.357" r="6.72128" fill="#078457"/>
<path d="M137.269 150.521C136.088 146.849 138.853 144.51 140.383 143.8C133.826 145.112 134.974 150.357 134.81 150.521C134.81 154.587 137.651 156.368 139.072 156.751C144.449 157.931 146.886 155.057 147.432 153.472C146.252 154.521 144.318 154.784 143.498 154.784C141.913 154.893 138.449 154.193 137.269 150.521Z" fill="#055F3F"/>
<ellipse cx="323.238" cy="165.651" rx="5.72699" ry="3.33207" fill="#7EAFA2"/>
<circle cx="323.189" cy="160.918" r="6.72128" fill="#078457"/>
<path d="M318.927 161.082C317.746 157.41 320.511 155.071 322.042 154.361C315.484 155.672 316.632 160.918 316.468 161.082C316.468 165.148 319.309 166.929 320.73 167.312C326.107 168.492 328.544 165.618 329.091 164.033C327.91 165.082 325.976 165.344 325.156 165.344C323.572 165.454 320.107 164.754 318.927 161.082Z" fill="#055F3F"/>
<ellipse cx="315.996" cy="166.64" rx="6.74932" ry="3.92687" fill="#7EAFA2"/>
<circle cx="315.941" cy="161.062" r="7.9211" fill="#078457"/>
<path d="M310.917 161.256C309.526 156.928 312.785 154.172 314.588 153.334C306.86 154.88 308.213 161.062 308.02 161.256C308.02 166.047 311.368 168.146 313.043 168.597C319.38 169.988 322.252 166.601 322.896 164.733C321.505 165.97 319.225 166.279 318.259 166.279C316.391 166.408 312.308 165.583 310.917 161.256Z" fill="#055F3F"/>
<ellipse cx="320.221" cy="172.977" rx="6.74932" ry="3.92687" fill="#7EAFA2"/>
<circle cx="320.166" cy="167.399" r="7.9211" fill="#078457"/>
<path d="M315.143 167.592C313.752 163.265 317.011 160.509 318.814 159.671C311.086 161.217 312.438 167.399 312.245 167.592C312.245 172.384 315.594 174.483 317.268 174.934C323.605 176.325 326.477 172.938 327.121 171.07C325.73 172.307 323.451 172.616 322.485 172.616C320.617 172.744 316.534 171.92 315.143 167.592Z" fill="#055F3F"/>
<ellipse cx="132.224" cy="270.142" rx="6.74932" ry="3.92687" fill="#7EAFA2"/>
<circle cx="132.168" cy="264.564" r="7.9211" fill="#078457"/>
<path d="M127.145 264.757C125.754 260.429 129.013 257.673 130.816 256.836C123.088 258.382 124.44 264.564 124.247 264.757C124.247 269.548 127.596 271.648 129.27 272.099C135.607 273.49 138.479 270.102 139.123 268.235C137.732 269.471 135.453 269.78 134.487 269.78C132.619 269.909 128.536 269.085 127.145 264.757Z" fill="#055F3F"/>
<ellipse cx="119.549" cy="271.199" rx="6.74932" ry="3.92687" fill="#7EAFA2"/>
<circle cx="119.495" cy="265.621" r="7.9211" fill="#078457"/>
<path d="M114.472 265.815C113.081 261.487 116.34 258.731 118.143 257.894C110.415 259.439 111.767 265.621 111.574 265.815C111.574 270.606 114.923 272.705 116.597 273.156C122.934 274.547 125.806 271.16 126.45 269.292C125.059 270.529 122.78 270.838 121.814 270.838C119.946 270.967 115.863 270.142 114.472 265.815Z" fill="#055F3F"/>
<ellipse cx="126.947" cy="277.535" rx="6.74932" ry="3.92687" fill="#7EAFA2"/>
<circle cx="126.889" cy="271.957" r="7.9211" fill="#078457"/>
<path d="M121.866 272.151C120.475 267.823 123.733 265.067 125.536 264.23C117.809 265.775 119.161 271.958 118.968 272.151C118.968 276.942 122.317 279.042 123.991 279.492C130.328 280.883 133.2 277.496 133.844 275.628C132.453 276.865 130.173 277.174 129.207 277.174C127.34 277.303 123.257 276.478 121.866 272.151Z" fill="#055F3F"/>
<ellipse cx="139.618" cy="161.359" rx="6.74932" ry="3.92687" fill="#7EAFA2"/>
<circle cx="139.564" cy="155.782" r="7.9211" fill="#078457"/>
<path d="M134.541 155.975C133.149 151.647 136.408 148.891 138.211 148.053C130.483 149.599 131.836 155.781 131.643 155.975C131.643 160.766 134.991 162.865 136.666 163.316C143.003 164.707 145.875 161.32 146.519 159.452C145.128 160.689 142.848 160.998 141.882 160.998C140.014 161.126 135.932 160.302 134.541 155.975Z" fill="#055F3F"/>
<ellipse cx="246.293" cy="123.338" rx="6.74932" ry="3.92687" fill="#7EAFA2"/>
<circle cx="246.236" cy="117.76" r="7.9211" fill="#078457"/>
<path d="M241.212 117.953C239.821 113.625 243.08 110.869 244.883 110.032C237.155 111.578 238.508 117.76 238.314 117.953C238.314 122.744 241.663 124.844 243.338 125.295C249.674 126.686 252.547 123.298 253.191 121.431C251.8 122.667 249.52 122.976 248.554 122.976C246.686 123.105 242.603 122.281 241.212 117.953Z" fill="#055F3F"/>
<ellipse cx="239.954" cy="128.619" rx="6.74932" ry="3.92687" fill="#7EAFA2"/>
<circle cx="239.898" cy="123.041" r="7.9211" fill="#078457"/>
<path d="M234.875 123.235C233.483 118.907 236.742 116.151 238.545 115.313C230.817 116.859 232.17 123.041 231.977 123.235C231.977 128.026 235.325 130.125 237 130.576C243.337 131.967 246.209 128.58 246.853 126.712C245.462 127.949 243.182 128.258 242.216 128.258C240.348 128.387 236.266 127.562 234.875 123.235Z" fill="#055F3F"/>
<ellipse cx="422.725" cy="106.412" rx="6.79644" ry="3.95429" fill="#7EAFA2"/>
<circle cx="422.668" cy="100.795" r="7.97641" fill="#078457"/>
<path d="M417.61 100.989C416.209 96.6315 419.49 93.856 421.306 93.0129C413.524 94.5693 414.886 100.795 414.691 100.989C414.691 105.814 418.064 107.928 419.75 108.382C426.131 109.783 429.023 106.372 429.671 104.491C428.271 105.736 425.975 106.048 425.002 106.048C423.122 106.177 419.01 105.347 417.61 100.989Z" fill="#055F3F"/>
<ellipse cx="414.218" cy="109.608" rx="6.74932" ry="3.92687" fill="#7EAFA2"/>
<circle cx="414.163" cy="104.03" r="7.9211" fill="#078457"/>
<path d="M409.14 104.223C407.749 99.8957 411.008 97.1394 412.811 96.3022C405.083 97.8478 406.435 104.03 406.242 104.223C406.242 109.015 409.591 111.114 411.265 111.565C417.602 112.956 420.474 109.568 421.118 107.701C419.727 108.937 417.448 109.246 416.482 109.246C414.614 109.375 410.531 108.551 409.14 104.223Z" fill="#055F3F"/>
<ellipse cx="421.61" cy="113.833" rx="6.74932" ry="3.92687" fill="#7EAFA2"/>
<circle cx="421.554" cy="108.255" r="7.9211" fill="#078457"/>
<path d="M416.531 108.448C415.14 104.121 418.398 101.364 420.202 100.527C412.474 102.073 413.826 108.255 413.633 108.448C413.633 113.239 416.982 115.339 418.656 115.79C424.993 117.181 427.865 113.793 428.509 111.926C427.118 113.162 424.838 113.471 423.872 113.471C422.005 113.6 417.922 112.776 416.531 108.448Z" fill="#055F3F"/>
<ellipse cx="587.423" cy="164.528" rx="6.74932" ry="3.92687" fill="#7EAFA2"/>
<circle cx="587.367" cy="158.95" r="7.9211" fill="#078457"/>
<path d="M582.344 159.143C580.953 154.815 584.212 152.059 586.015 151.222C578.287 152.768 579.639 158.95 579.446 159.143C579.446 163.934 582.795 166.034 584.469 166.485C590.806 167.876 593.679 164.488 594.322 162.621C592.931 163.857 590.652 164.166 589.686 164.166C587.818 164.295 583.735 163.471 582.344 159.143Z" fill="#055F3F"/>
<ellipse cx="577.918" cy="160.303" rx="6.74932" ry="3.92687" fill="#7EAFA2"/>
<circle cx="577.862" cy="154.725" r="7.9211" fill="#078457"/>
<path d="M572.838 154.919C571.447 150.591 574.706 147.835 576.509 146.998C568.781 148.543 570.134 154.726 569.94 154.919C569.94 159.71 573.289 161.81 574.964 162.26C581.3 163.651 584.173 160.264 584.817 158.396C583.426 159.633 581.146 159.942 580.18 159.942C578.312 160.071 574.229 159.247 572.838 154.919Z" fill="#055F3F"/>
<ellipse cx="580.031" cy="166.64" rx="6.74932" ry="3.92687" fill="#7EAFA2"/>
<circle cx="579.977" cy="161.062" r="7.9211" fill="#078457"/>
<path d="M574.954 161.256C573.563 156.928 576.821 154.172 578.624 153.334C570.896 154.88 572.249 161.062 572.056 161.256C572.056 166.047 575.404 168.146 577.079 168.597C583.416 169.988 586.288 166.601 586.932 164.733C585.541 165.97 583.261 166.279 582.295 166.279C580.428 166.408 576.345 165.583 574.954 161.256Z" fill="#055F3F"/>
<ellipse cx="434.283" cy="383.15" rx="6.74932" ry="3.92687" fill="#7EAFA2"/>
<circle cx="434.229" cy="377.572" r="7.9211" fill="#078457"/>
<path d="M429.206 377.766C427.815 373.438 431.073 370.682 432.876 369.845C425.148 371.391 426.501 377.573 426.308 377.766C426.308 382.557 429.656 384.657 431.331 385.108C437.668 386.499 440.54 383.111 441.184 381.244C439.793 382.48 437.513 382.789 436.547 382.789C434.68 382.918 430.597 382.094 429.206 377.766Z" fill="#055F3F"/>
<ellipse cx="426.893" cy="375.757" rx="6.74932" ry="3.92687" fill="#7EAFA2"/>
<circle cx="426.836" cy="370.179" r="7.9211" fill="#078457"/>
<path d="M421.813 370.373C420.422 366.045 423.681 363.289 425.484 362.451C417.756 363.997 419.108 370.179 418.915 370.373C418.915 375.164 422.264 377.263 423.938 377.714C430.275 379.105 433.147 375.718 433.791 373.85C432.4 375.087 430.12 375.396 429.155 375.396C427.287 375.524 423.204 374.7 421.813 370.373Z" fill="#055F3F"/>
<ellipse cx="426.893" cy="384.206" rx="6.74932" ry="3.92687" fill="#7EAFA2"/>
<circle cx="426.836" cy="378.628" r="7.9211" fill="#078457"/>
<path d="M421.813 378.821C420.422 374.494 423.681 371.738 425.484 370.9C417.756 372.446 419.108 378.628 418.915 378.821C418.915 383.613 422.264 385.712 423.938 386.163C430.275 387.554 433.147 384.167 433.791 382.299C432.4 383.536 430.12 383.845 429.155 383.845C427.287 383.973 423.204 383.149 421.813 378.821Z" fill="#055F3F"/>
<ellipse cx="430.06" cy="386.318" rx="6.74932" ry="3.92687" fill="#7EAFA2"/>
<circle cx="430.004" cy="380.74" r="7.9211" fill="#078457"/>
<path d="M424.981 380.934C423.59 376.607 426.849 373.85 428.652 373.013C420.924 374.559 422.276 380.741 422.083 380.934C422.083 385.726 425.432 387.825 427.106 388.276C433.443 389.667 436.315 386.279 436.959 384.412C435.568 385.648 433.288 385.957 432.322 385.957C430.455 386.086 426.372 385.262 424.981 380.934Z" fill="#055F3F"/>
<ellipse cx="345.566" cy="332.455" rx="6.74932" ry="3.92687" fill="#7EAFA2"/>
<circle cx="345.511" cy="326.877" r="7.9211" fill="#078457"/>
<path d="M340.488 327.071C339.097 322.743 342.355 319.987 344.159 319.149C336.431 320.695 337.783 326.877 337.59 327.071C337.59 331.862 340.939 333.961 342.613 334.412C348.95 335.803 351.822 332.416 352.466 330.548C351.075 331.785 348.795 332.094 347.829 332.094C345.962 332.222 341.879 331.398 340.488 327.071Z" fill="#055F3F"/>
<ellipse cx="340.285" cy="327.173" rx="6.74932" ry="3.92687" fill="#7EAFA2"/>
<circle cx="340.231" cy="321.596" r="7.9211" fill="#078457"/>
<path d="M335.208 321.789C333.816 317.461 337.075 314.705 338.878 313.868C331.15 315.414 332.503 321.596 332.31 321.789C332.31 326.58 335.658 328.68 337.333 329.131C343.67 330.522 346.542 327.134 347.186 325.267C345.795 326.503 343.515 326.812 342.549 326.812C340.681 326.941 336.599 326.117 335.208 321.789Z" fill="#055F3F"/>
<ellipse cx="340.285" cy="335.623" rx="6.74932" ry="3.92687" fill="#7EAFA2"/>
<circle cx="340.231" cy="330.045" r="7.9211" fill="#078457"/>
<path d="M335.208 330.239C333.816 325.912 337.075 323.155 338.878 322.318C331.15 323.864 332.503 330.046 332.31 330.239C332.31 335.031 335.658 337.13 337.333 337.581C343.67 338.972 346.542 335.584 347.186 333.717C345.795 334.953 343.515 335.262 342.549 335.262C340.681 335.391 336.599 334.567 335.208 330.239Z" fill="#055F3F"/>
<ellipse cx="445.912" cy="86.3115" rx="21.6158" ry="12.4707" fill="#7EAFA2"/>
<path d="M455.34 55.4447V54.6152H453.958V55.7211C452.852 56.6059 452.76 57.38 452.852 57.6565C452.852 58.0988 453.589 57.6565 453.958 57.38C453.737 57.6012 454.234 59.5918 454.511 59.5918C455.064 59.5918 454.787 58.6702 454.787 57.9329C455.23 59.0388 455.34 59.5918 455.617 59.5918C455.893 59.5918 455.893 58.6702 455.893 57.9329C456.336 60.1447 456.999 59.3153 456.723 58.4859L455.893 55.4447H455.34Z" fill="#FEFEFE"/>
<path d="M453.679 32.2206C451.743 29.4558 447.817 23.7051 447.596 22.8204V25.8616L450.637 28.6264L456.167 54.3386L452.296 54.8916L451.19 50.7444L453.679 86.1333H433.772L435.984 42.4502C434.436 47.7585 430.731 46.8738 429.072 45.7679L426.308 34.9853H425.478V32.2206H429.072V34.9853C429.717 37.9344 431.174 43.7773 431.837 43.5561C432.501 43.3349 435.616 32.5892 437.09 27.244C439.302 26.5805 439.302 24.5714 439.026 23.6498C435.929 20.1109 436.998 16.4615 437.92 15.0791C444.555 8.22252 450.637 14.6183 452.849 18.6733C455.946 29.5111 454.692 32.2206 453.679 32.2206Z" fill="black"/>
<path fill-rule="evenodd" clip-rule="evenodd" d="M444.003 21.1616V22.8204C443.561 23.9263 442.621 23.2812 442.345 22.8204C442.068 23.9263 440.962 23.3734 440.962 22.8204C440.741 23.7051 439.303 23.3734 439.303 22.8204V21.1616C438.197 20.498 438.105 18.8576 438.197 18.1203C438.861 15.6873 440.87 15.0791 441.792 15.0791C444.003 15.0791 445.017 17.0144 445.386 18.1203C445.386 19.8898 444.464 20.8851 444.003 21.1616ZM442.069 18.673C442.069 19.2838 442.564 19.7789 443.174 19.7789C443.785 19.7789 444.28 19.2838 444.28 18.673C444.28 18.0622 443.785 17.5671 443.174 17.5671C442.564 17.5671 442.069 18.0622 442.069 18.673ZM440.409 19.7789C439.798 19.7789 439.303 19.2838 439.303 18.673C439.303 18.0622 439.798 17.5671 440.409 17.5671C441.02 17.5671 441.515 18.0622 441.515 18.673C441.515 19.2838 441.02 19.7789 440.409 19.7789Z" fill="#D9DBDC"/>
<path d="M428.797 18.4625V85.9226H425.756V16.2507L428.797 18.4625Z" fill="#381605"/>
<path d="M397.002 17.6335C411.6 10.7769 424.281 15.5138 428.797 18.7394V12.104C409.554 6.13208 399.583 13.302 397.002 17.6335Z" fill="#919CAF"/>
<path d="M443.561 86.4626V66.5095H449.38V86.4626C446.055 89.123 444.115 87.5711 443.561 86.4626Z" fill="#3A2D13"/>
<circle cx="447.719" cy="34.0865" r="34.0865" fill="#078457"/>
<path d="M426.103 34.9178C420.117 16.2949 434.14 4.43394 441.9 0.831299C408.644 7.48232 414.464 34.0864 413.633 34.9178C413.633 55.536 428.043 64.5703 435.249 66.5102C462.518 72.4961 474.878 57.9193 477.649 49.8826C471.663 55.2034 461.853 56.5336 457.696 56.5336C449.659 57.0879 432.089 53.5407 426.103 34.9178Z" fill="#055F3F"/>
<ellipse cx="663.396" cy="224.593" rx="21.6158" ry="12.4707" fill="#7EAFA2"/>
<path d="M660.071 223.762V203.809H665.891V223.762C662.565 226.422 660.626 224.87 660.071 223.762Z" fill="#3A2D13"/>
<circle cx="664.228" cy="171.385" r="34.0865" fill="#078457"/>
<path d="M642.612 172.216C636.626 153.593 650.649 141.732 658.408 138.129C625.153 144.78 630.973 171.385 630.142 172.216C630.142 192.834 644.552 201.868 651.757 203.808C679.027 209.794 691.386 195.217 694.158 187.181C688.172 192.502 678.362 193.832 674.205 193.832C666.168 194.386 648.598 190.839 642.612 172.216Z" fill="#055F3F"/>
<ellipse cx="398.743" cy="279.08" rx="30.1388" ry="17.3878" fill="#7EAFA2"/>
<path d="M394.106 277.92V250.1H402.221V277.92C397.584 281.63 394.879 279.466 394.106 277.92Z" fill="#3A2D13"/>
<circle cx="399.903" cy="204.892" r="47.5266" fill="#078457"/>
<path d="M369.764 206.051C361.418 180.086 380.969 163.548 391.788 158.525C345.421 167.798 353.535 204.892 352.376 206.051C352.376 234.799 372.469 247.396 382.515 250.1C420.536 258.446 437.769 238.122 441.633 226.917C433.287 234.335 419.609 236.19 413.813 236.19C402.607 236.963 378.11 232.017 369.764 206.051Z" fill="#055F3F"/>
<ellipse cx="291.069" cy="83.0359" rx="15.0694" ry="8.69389" fill="#7EAFA2"/>
<path d="M288.746 82.4566V68.5464H292.803V82.4566C290.485 84.3113 289.132 83.2294 288.746 82.4566Z" fill="#3A2D13"/>
<circle cx="291.645" cy="45.9418" r="23.7633" fill="#078457"/>
<path d="M276.576 46.5214C272.403 33.5385 282.178 25.2696 287.588 22.7581C264.404 27.3948 268.461 45.9418 267.882 46.5214C267.882 60.8952 277.928 67.1935 282.951 68.5459C301.962 72.7189 310.578 62.5567 312.51 56.954C308.337 60.6634 301.498 61.5908 298.6 61.5908C292.997 61.9771 280.749 59.5042 276.576 46.5214Z" fill="#055F3F"/>
<ellipse cx="315.224" cy="331" rx="18.4122" ry="10.6224" fill="#7EAFA2"/>
<path d="M312.392 330.292V313.297H317.349V330.292C314.516 332.559 312.864 331.237 312.392 330.292Z" fill="#3A2D13"/>
<circle cx="315.932" cy="285.678" r="29.0346" fill="#078457"/>
<path d="M297.52 286.386C292.421 270.524 304.365 260.421 310.975 257.352C282.648 263.017 287.606 285.678 286.897 286.386C286.897 303.949 299.172 311.644 305.31 313.297C328.537 318.395 339.065 305.979 341.426 299.133C336.327 303.666 327.971 304.799 324.43 304.799C317.584 305.271 302.619 302.249 297.52 286.386Z" fill="#055F3F"/>
<ellipse cx="552.855" cy="300.372" rx="18.4122" ry="10.6224" fill="#7EAFA2"/>
<path d="M550.021 299.664V282.668H554.979V299.664C552.146 301.93 550.494 300.609 550.021 299.664Z" fill="#3A2D13"/>
<circle cx="553.563" cy="255.05" r="29.0346" fill="#078457"/>
<path d="M535.151 255.758C530.052 239.895 541.996 229.792 548.606 226.723C520.279 232.389 525.236 255.05 524.528 255.758C524.528 273.32 536.803 281.016 542.941 282.668C566.168 287.767 576.696 275.35 579.057 268.505C573.958 273.037 565.602 274.17 562.061 274.17C555.215 274.642 540.249 271.621 535.151 255.758Z" fill="#055F3F"/>
<ellipse cx="509.551" cy="209.544" rx="18.4122" ry="10.6224" fill="#7EAFA2"/>
<path d="M506.72 208.835V191.84H511.677V208.835C508.844 211.102 507.192 209.78 506.72 208.835Z" fill="#3A2D13"/>
<circle cx="510.259" cy="164.221" r="29.0346" fill="#078457"/>
<path d="M491.847 164.929C486.748 149.067 498.693 138.963 505.302 135.895C476.975 141.56 481.933 164.221 481.225 164.929C481.225 182.492 493.499 190.187 499.637 191.84C522.864 196.938 533.392 184.522 535.753 177.676C530.654 182.209 522.298 183.342 518.757 183.342C511.912 183.814 496.946 180.792 491.847 164.929Z" fill="#055F3F"/>
<ellipse cx="208.552" cy="197.399" rx="15.6662" ry="9.0382" fill="#7EAFA2"/>
<path d="M206.141 196.796V182.335H210.358V196.796C207.948 198.724 206.542 197.599 206.141 196.796Z" fill="#3A2D13"/>
<circle cx="209.154" cy="158.836" r="24.7044" fill="#078457"/>
<path d="M193.487 159.438C189.149 145.941 199.312 137.345 204.936 134.734C180.834 139.554 185.052 158.836 184.449 159.438C184.449 174.381 194.893 180.929 200.115 182.335C219.879 186.673 228.837 176.108 230.845 170.284C226.507 174.14 219.397 175.104 216.384 175.104C210.56 175.506 197.826 172.935 193.487 159.438Z" fill="#055F3F"/>
<path d="M240.265 73.4249L263.669 123.648L283.859 72.0461C288.478 60.0106 287.295 49.9646 285.237 45.719C276.781 30.3298 261.755 33.3543 255.299 36.7901C236.496 48.03 237.071 66.1163 240.265 73.4249Z" fill="#D20513"/>
<path d="M251.622 53.7295C247.841 60.3474 250.047 67.1666 251.622 69.749C254.117 70.0991 260.183 68.9742 264.49 61.6736C268.797 54.3729 266.285 47.4705 264.49 44.9319C261.777 45.107 255.404 47.1116 251.622 53.7295Z" fill="white"/>
<path d="M265.106 60.7328C268.73 53.4321 266.266 47.1425 264.58 44.9103C267.25 44.779 273.26 46.3284 275.939 53.5766C278.617 60.8247 273.903 67.8453 271.211 70.4496C261.757 79.0108 254.185 73.5353 251.581 69.7274C258.462 70.2001 263.464 63.928 265.106 60.7328Z" fill="#95030C"/>
<path d="M258.21 28.5624C262.465 28.5099 271.276 33.3552 275.149 35.7843C267.533 32.5804 260.771 34.6729 258.21 35.5874C250.857 38.2135 244.751 45.5667 242.782 48.9807C236.794 59.5378 238.908 69.5303 240.221 73.2069C248.187 89.9048 263.996 123.451 263.668 123.648C263.305 123.866 262.303 123.301 261.887 123.038L253.565 118.544C252.577 118.01 251.799 117.163 251.353 116.132C244.804 100.978 232.392 72.3315 230.111 67.3637C227.747 62.2165 229.126 53.9266 230.111 50.4251C231.476 43.387 238.164 36.5503 241.337 34.0117C246.537 29.022 254.753 28.2998 258.21 28.5624Z" fill="#94030D"/>
</svg>
