<svg width="53" height="51" viewBox="0 0 53 51" fill="none" xmlns="http://www.w3.org/2000/svg">
<path d="M40.0256 2H11.1001C4.08003 3.51409 2.10834 9.57047 2 12.4094V39.5369C3.82003 46.855 9.69179 48.8949 12.4002 49H41.0006C47.7607 47.7383 50.1007 42.1655 50.4258 39.5369C50.8591 32.8076 51.4658 17.7087 50.4258 11.1477C49.3857 4.58658 43.059 2.31544 40.0256 2Z" stroke="black" stroke-width="2.5"/>
<path d="M27 35.25C32.5926 35.25 37.25 30.9511 37.25 25.5C37.25 20.0489 32.5926 15.75 27 15.75C21.4074 15.75 16.75 20.0489 16.75 25.5C16.75 30.9511 21.4074 35.25 27 35.25Z" stroke="black" stroke-width="2.5"/>
<path d="M41.5 16.25C43.9356 16.25 46.25 14.521 46.25 12C46.25 9.47896 43.9356 7.75 41.5 7.75C39.0644 7.75 36.75 9.47896 36.75 12C36.75 14.521 39.0644 16.25 41.5 16.25Z" stroke="black" stroke-width="2.5"/>
</svg>
