<svg width="49" height="41" viewBox="0 0 49 41" fill="none" xmlns="http://www.w3.org/2000/svg">
<path d="M26.505 1.71388C26.505 1.26005 26.7205 0.824817 27.104 0.503915C27.4875 0.183013 28.0077 0.00273264 28.55 0.00273264C33.9719 0.0077148 39.1699 1.81212 43.0038 5.02006C46.8376 8.228 48.994 12.5775 49 17.1142C49 17.568 48.7846 18.0032 48.401 18.3241C48.0175 18.645 47.4974 18.8253 46.955 18.8253C46.4126 18.8253 45.8925 18.645 45.509 18.3241C45.1255 18.0032 44.91 17.568 44.91 17.1142C44.9051 13.4848 43.1799 10.0053 40.1129 7.43898C37.0459 4.87265 32.8875 3.4291 28.55 3.42502C28.0077 3.42502 27.4875 3.24474 27.104 2.92384C26.7205 2.60294 26.505 2.1677 26.505 1.71388ZM28.55 10.2696C30.7195 10.2696 32.8001 10.9907 34.3342 12.2743C35.8682 13.5579 36.73 15.2989 36.73 17.1142C36.73 17.568 36.9455 18.0032 37.329 18.3241C37.7125 18.645 38.2327 18.8253 38.775 18.8253C39.3174 18.8253 39.8375 18.645 40.2211 18.3241C40.6046 18.0032 40.82 17.568 40.82 17.1142C40.8168 14.3921 39.523 11.7822 37.2226 9.85741C34.9223 7.93258 31.8032 6.85003 28.55 6.84731C28.0077 6.84731 27.4875 7.02759 27.104 7.34849C26.7205 7.66939 26.505 8.10463 26.505 8.55845C26.505 9.01228 26.7205 9.44751 27.104 9.76841C27.4875 10.0893 28.0077 10.2696 28.55 10.2696ZM47.1452 28.6456C48.3303 29.6399 48.9958 30.987 48.9958 32.3913C48.9958 33.7956 48.3303 35.1426 47.1452 36.137L45.2842 37.9319C28.5357 51.349 -12.2211 17.2545 3.56632 3.19573L5.91806 1.48458C7.10778 0.520657 8.70321 -0.0125837 10.3592 0.000225545C12.0152 0.0130348 13.5985 0.570864 14.7668 1.55303C14.8302 1.60607 18.6195 5.7248 18.6195 5.7248C19.7439 6.7132 20.3699 8.02617 20.3672 9.39076C20.3645 10.7554 19.7335 12.0666 18.6052 13.0519L16.2371 15.5433C17.5476 18.2078 19.4745 20.6293 21.9069 22.6687C24.3393 24.7081 27.2293 26.3253 30.411 27.4272L33.4069 25.4338C34.5846 24.4904 36.1514 23.963 37.7818 23.9611C39.4121 23.9592 40.9807 24.4829 42.1615 25.4235C42.1615 25.4235 47.0818 28.5925 47.1452 28.6456ZM44.3313 31.1336C44.3313 31.1336 39.4376 27.9834 39.3742 27.9303C38.9529 27.5808 38.3836 27.3847 37.7904 27.3847C37.1971 27.3847 36.6278 27.5808 36.2065 27.9303C36.1513 27.9782 32.0265 30.728 32.0265 30.728C31.7486 30.9132 31.4178 31.0345 31.0667 31.0801C30.7156 31.1257 30.3564 31.094 30.0245 30.9881C25.9027 29.704 22.1589 27.6937 19.0466 25.0934C15.9343 22.493 13.5263 19.3634 11.9856 15.9164C11.849 15.6348 11.8044 15.3279 11.8565 15.0272C11.9087 14.7264 12.0555 14.4427 12.2821 14.2052C12.2821 14.2052 15.5684 10.7521 15.6236 10.7077C16.0413 10.3551 16.2757 9.8788 16.2757 9.38237C16.2757 8.88594 16.0413 8.40961 15.6236 8.05709C15.5602 8.00575 11.7954 3.90756 11.7954 3.90756C11.3678 3.58674 10.8097 3.41492 10.2356 3.42733C9.66141 3.43973 9.11468 3.63543 8.70744 3.9743L6.35569 5.68544C-5.18218 17.2938 30.137 45.2077 42.2945 35.5945L44.1575 33.7978C44.594 33.4595 44.8562 32.9923 44.8887 32.4951C44.9211 31.998 44.7212 31.5097 44.3313 31.1336Z" fill="black"/>
</svg>
