<svg width="49" height="47" viewBox="0 0 49 47" fill="none" xmlns="http://www.w3.org/2000/svg">
<path d="M47.6 23.5C47.6 35.6511 37.3133 45.6 24.5 45.6C11.6867 45.6 1.4 35.6511 1.4 23.5C1.4 11.3489 11.6867 1.4 24.5 1.4C37.3133 1.4 47.6 11.3489 47.6 23.5Z" stroke="black" stroke-width="2.8"/>
<path d="M16.0384 27.283C8.03556 26.2579 8.45194 24.6729 9.68443 24.0001L35.3577 13.6614C36.0795 13.3707 36.8423 13.979 36.7183 14.7473C35.7485 20.756 34.1001 30.8731 33.5186 33.4654C32.8759 36.3305 31.2869 36.1941 30.5728 35.7677L21.3914 29.536C20.874 29.1848 20.8022 28.4502 21.2419 28.0055L27.3661 21.8111C27.695 21.4786 27.2835 20.9485 26.8798 21.1846L16.6708 27.1554C16.4818 27.2659 16.2556 27.3109 16.0384 27.283Z" fill="black"/>
</svg>
