<svg width="508" height="67" viewBox="0 0 508 67" fill="none" xmlns="http://www.w3.org/2000/svg">
<path d="M66.3437 48V28.344H57.2717V22.8H81.1397V28.344H72.1037V48H66.3437ZM85.0563 48V22.44H90.0603V36.228C90.3963 34.236 91.1403 32.64 92.2923 31.44C93.4683 30.24 94.8963 29.64 96.5763 29.64C97.9203 29.64 99.0963 29.976 100.104 30.648C101.112 31.32 101.892 32.28 102.444 33.528C102.996 34.752 103.272 36.18 103.272 37.812V48H98.2323V38.604C98.2083 37.308 97.8243 36.264 97.0803 35.472C96.3363 34.68 95.3643 34.284 94.1643 34.284C93.3963 34.284 92.7003 34.476 92.0763 34.86C91.4523 35.244 90.9603 35.76 90.6003 36.408C90.2403 37.056 90.0603 37.788 90.0603 38.604V48H85.0563ZM116.958 48.36C115.134 48.36 113.478 47.964 111.99 47.172C110.526 46.38 109.362 45.288 108.498 43.896C107.658 42.504 107.238 40.92 107.238 39.144C107.238 37.296 107.67 35.652 108.534 34.212C109.398 32.772 110.574 31.656 112.062 30.864C113.55 30.048 115.194 29.64 116.994 29.64C118.794 29.64 120.414 30.048 121.854 30.864C123.318 31.656 124.47 32.772 125.31 34.212C126.15 35.628 126.57 37.224 126.57 39C126.57 39.048 126.57 39.108 126.57 39.18C126.57 39.252 126.57 39.312 126.57 39.36H112.17C112.218 40.224 112.458 41.004 112.89 41.7C113.346 42.372 113.922 42.912 114.618 43.32C115.338 43.704 116.13 43.896 116.994 43.896C117.834 43.896 118.59 43.728 119.262 43.392C119.934 43.056 120.402 42.612 120.666 42.06H126.03C125.91 43.068 125.454 44.064 124.662 45.048C123.894 46.008 122.838 46.8 121.494 47.424C120.174 48.048 118.662 48.36 116.958 48.36ZM121.854 38.64C121.806 37.776 121.566 37.008 121.134 36.336C120.702 35.64 120.126 35.1 119.406 34.716C118.71 34.308 117.918 34.104 117.03 34.104C116.166 34.104 115.374 34.308 114.654 34.716C113.958 35.1 113.382 35.64 112.926 36.336C112.494 37.008 112.254 37.776 112.206 38.64H121.854ZM149.588 48.54C147.5 48.54 145.616 48 143.936 46.92C142.256 45.816 140.936 44.268 139.976 42.276C139.016 40.284 138.536 37.992 138.536 35.4C138.536 32.904 139.088 30.66 140.192 28.668C141.32 26.652 142.856 25.08 144.8 23.952C146.768 22.824 148.988 22.26 151.46 22.26C153.548 22.26 155.456 22.68 157.184 23.52C158.936 24.336 160.376 25.476 161.504 26.94C162.656 28.404 163.4 30.084 163.736 31.98H157.688C157.304 30.636 156.572 29.58 155.492 28.812C154.412 28.044 153.128 27.66 151.64 27.66C150.224 27.66 148.964 27.996 147.86 28.668C146.78 29.34 145.928 30.276 145.304 31.476C144.704 32.676 144.404 34.044 144.404 35.58C144.404 37.14 144.716 38.532 145.34 39.756C145.964 40.98 146.84 41.94 147.968 42.636C149.096 43.308 150.38 43.644 151.82 43.644C153.212 43.644 154.448 43.32 155.528 42.672C156.632 42 157.496 41.1 158.12 39.972C158.768 38.82 159.092 37.548 159.092 36.156V35.76H151.712V35.04H163.916V48H159.092V38.568C158.708 41.64 157.688 44.076 156.032 45.876C154.4 47.652 152.252 48.54 149.588 48.54ZM169.396 48V22.44H174.4V48H169.396ZM183.895 48.432C182.287 48.432 180.991 48.048 180.007 47.28C179.023 46.488 178.531 45.372 178.531 43.932C178.531 42.54 178.987 41.46 179.899 40.692C180.835 39.924 181.915 39.396 183.139 39.108C184.387 38.82 185.791 38.604 187.351 38.46C188.575 38.388 189.523 38.232 190.195 37.992C190.891 37.752 191.239 37.296 191.239 36.624C191.239 35.664 190.903 34.932 190.231 34.428C189.583 33.9 188.791 33.636 187.855 33.636C186.751 33.636 185.851 33.936 185.155 34.536C184.459 35.136 184.051 35.976 183.931 37.056H179.287C179.359 35.496 179.791 34.164 180.583 33.06C181.375 31.932 182.407 31.08 183.679 30.504C184.975 29.928 186.391 29.64 187.927 29.64C189.463 29.64 190.831 29.928 192.031 30.504C193.231 31.08 194.167 31.92 194.839 33.024C195.511 34.128 195.847 35.448 195.847 36.984V43.608H197.935V48H191.275V41.52C190.867 43.536 190.027 45.192 188.755 46.488C187.507 47.784 185.887 48.432 183.895 48.432ZM186.379 44.544C187.243 44.544 188.047 44.292 188.791 43.788C189.535 43.284 190.123 42.636 190.555 41.844C191.011 41.028 191.239 40.164 191.239 39.252L191.275 38.136C190.987 38.4 190.627 38.592 190.195 38.712C189.787 38.832 189.211 38.952 188.467 39.072C188.419 39.072 188.371 39.084 188.323 39.108C188.275 39.108 188.239 39.108 188.215 39.108C186.703 39.252 185.563 39.564 184.795 40.044C184.027 40.5 183.643 41.196 183.643 42.132C183.643 42.948 183.895 43.56 184.399 43.968C184.903 44.352 185.563 44.544 186.379 44.544ZM207.75 48.36C206.334 48.36 205.05 47.952 203.898 47.136C202.77 46.32 201.87 45.204 201.198 43.788C200.55 42.348 200.226 40.752 200.226 39C200.226 37.248 200.55 35.664 201.198 34.248C201.87 32.808 202.77 31.68 203.898 30.864C205.05 30.048 206.334 29.64 207.75 29.64C209.406 29.64 210.834 30.252 212.034 31.476C213.234 32.676 214.05 34.272 214.482 36.264V22.44H219.486V48H214.482V41.736C214.05 43.728 213.234 45.336 212.034 46.56C210.834 47.76 209.406 48.36 207.75 48.36ZM209.982 43.716C210.846 43.716 211.626 43.512 212.322 43.104C213.042 42.696 213.594 42.132 213.978 41.412C214.386 40.692 214.59 39.888 214.59 39C214.59 38.112 214.386 37.308 213.978 36.588C213.594 35.868 213.042 35.304 212.322 34.896C211.626 34.464 210.846 34.248 209.982 34.248C209.118 34.248 208.326 34.464 207.606 34.896C206.91 35.304 206.358 35.868 205.95 36.588C205.542 37.308 205.338 38.112 205.338 39C205.338 39.888 205.542 40.692 205.95 41.412C206.358 42.132 206.91 42.696 207.606 43.104C208.326 43.512 209.118 43.716 209.982 43.716ZM233.536 48.36C231.712 48.36 230.056 47.964 228.568 47.172C227.104 46.38 225.94 45.288 225.076 43.896C224.236 42.504 223.816 40.92 223.816 39.144C223.816 37.296 224.248 35.652 225.112 34.212C225.976 32.772 227.152 31.656 228.64 30.864C230.128 30.048 231.772 29.64 233.572 29.64C235.372 29.64 236.992 30.048 238.432 30.864C239.896 31.656 241.048 32.772 241.888 34.212C242.728 35.628 243.148 37.224 243.148 39C243.148 39.048 243.148 39.108 243.148 39.18C243.148 39.252 243.148 39.312 243.148 39.36H228.748C228.796 40.224 229.036 41.004 229.468 41.7C229.924 42.372 230.5 42.912 231.196 43.32C231.916 43.704 232.708 43.896 233.572 43.896C234.412 43.896 235.168 43.728 235.84 43.392C236.512 43.056 236.98 42.612 237.244 42.06H242.608C242.488 43.068 242.032 44.064 241.24 45.048C240.472 46.008 239.416 46.8 238.072 47.424C236.752 48.048 235.24 48.36 233.536 48.36ZM238.432 38.64C238.384 37.776 238.144 37.008 237.712 36.336C237.28 35.64 236.704 35.1 235.984 34.716C235.288 34.308 234.496 34.104 233.608 34.104C232.744 34.104 231.952 34.308 231.232 34.716C230.536 35.1 229.96 35.64 229.504 36.336C229.072 37.008 228.832 37.776 228.784 38.64H238.432ZM255.217 48.504C252.409 48.504 250.117 47.868 248.341 46.596C246.589 45.324 245.629 43.548 245.461 41.268H250.645C250.813 42.3 251.293 43.08 252.085 43.608C252.877 44.136 253.861 44.4 255.037 44.4C255.685 44.4 256.297 44.316 256.873 44.148C257.449 43.98 257.917 43.716 258.277 43.356C258.637 42.972 258.817 42.504 258.817 41.952C258.817 41.4 258.649 40.968 258.313 40.656C258.001 40.32 257.521 40.056 256.873 39.864C256.249 39.672 255.397 39.492 254.317 39.324C254.173 39.3 254.017 39.276 253.849 39.252C253.705 39.228 253.549 39.204 253.381 39.18C251.677 38.964 250.297 38.7 249.241 38.388C248.209 38.052 247.429 37.608 246.901 37.056C246.397 36.48 246.145 35.736 246.145 34.824C246.145 33.72 246.493 32.772 247.189 31.98C247.885 31.164 248.845 30.552 250.069 30.144C251.317 29.712 252.733 29.496 254.317 29.496C257.077 29.496 259.273 30.132 260.905 31.404C262.561 32.676 263.461 34.476 263.605 36.804H258.637C258.565 35.748 258.157 34.956 257.413 34.428C256.669 33.9 255.757 33.636 254.677 33.636C253.717 33.636 252.889 33.864 252.193 34.32C251.497 34.752 251.149 35.376 251.149 36.192C251.149 36.648 251.293 37.044 251.581 37.38C251.893 37.716 252.361 38.004 252.985 38.244C253.609 38.46 254.425 38.64 255.433 38.784C255.601 38.808 255.769 38.832 255.937 38.856C256.129 38.88 256.321 38.904 256.513 38.928C256.609 38.952 256.705 38.964 256.801 38.964C256.897 38.964 256.993 38.976 257.089 39C258.601 39.192 259.837 39.468 260.797 39.828C261.757 40.188 262.465 40.656 262.921 41.232C263.377 41.784 263.605 42.492 263.605 43.356C263.605 44.436 263.245 45.36 262.525 46.128C261.805 46.896 260.809 47.484 259.537 47.892C258.265 48.3 256.825 48.504 255.217 48.504ZM285.079 48.36C283.207 48.36 281.515 47.952 280.003 47.136C278.515 46.32 277.339 45.204 276.475 43.788C275.635 42.348 275.215 40.752 275.215 39C275.215 37.224 275.635 35.628 276.475 34.212C277.339 32.796 278.515 31.68 280.003 30.864C281.515 30.048 283.207 29.64 285.079 29.64C286.927 29.64 288.595 30.048 290.083 30.864C291.595 31.68 292.783 32.808 293.647 34.248C294.511 35.664 294.943 37.248 294.943 39C294.943 40.752 294.511 42.348 293.647 43.788C292.783 45.204 291.595 46.32 290.083 47.136C288.595 47.952 286.927 48.36 285.079 48.36ZM285.079 43.716C285.943 43.716 286.735 43.512 287.455 43.104C288.175 42.696 288.739 42.132 289.147 41.412C289.579 40.692 289.795 39.888 289.795 39C289.795 38.112 289.579 37.308 289.147 36.588C288.739 35.868 288.175 35.304 287.455 34.896C286.735 34.464 285.943 34.248 285.079 34.248C284.191 34.248 283.387 34.464 282.667 34.896C281.947 35.304 281.371 35.868 280.939 36.588C280.531 37.308 280.327 38.112 280.327 39C280.327 39.888 280.531 40.692 280.939 41.412C281.371 42.132 281.947 42.696 282.667 43.104C283.387 43.512 284.191 43.716 285.079 43.716ZM300.463 48V34.5H297.115V30H300.463V28.2C300.463 26.856 300.763 25.668 301.363 24.636C301.963 23.604 302.827 22.8 303.955 22.224C305.107 21.648 306.475 21.36 308.059 21.36C309.499 21.36 310.783 21.624 311.911 22.152C313.039 22.656 313.927 23.4 314.575 24.384C315.247 25.368 315.583 26.556 315.583 27.948H310.867V27.66C310.843 26.964 310.567 26.412 310.039 26.004C309.511 25.572 308.851 25.356 308.059 25.356C307.171 25.356 306.451 25.608 305.899 26.112C305.347 26.592 305.071 27.3 305.071 28.236C305.071 28.428 305.071 28.62 305.071 28.812C305.071 29.004 305.083 29.208 305.107 29.424C305.131 29.52 305.143 29.616 305.143 29.712C305.167 29.808 305.191 29.904 305.215 30H312.919V34.5H305.467V48H300.463ZM325.679 48V22.8H343.067V27.804H331.331V35.04H339.323V35.76H331.331V42.996H344.111V48H325.679ZM356.77 48.36C354.418 48.36 352.678 47.856 351.55 46.848C350.422 45.816 349.858 44.316 349.858 42.348V34.5H345.79V30H348.166C348.91 30 349.474 29.808 349.858 29.424C350.242 29.016 350.434 28.452 350.434 27.732V25.68H354.862V30H361.342V34.5H354.862V41.088C354.862 42.024 355.102 42.696 355.582 43.104C356.062 43.512 356.842 43.716 357.922 43.716C358.882 43.716 360.022 43.608 361.342 43.392V47.892C360.622 48.012 359.842 48.12 359.002 48.216C358.162 48.312 357.418 48.36 356.77 48.36ZM373.528 48.36C371.704 48.36 370.048 47.964 368.56 47.172C367.096 46.38 365.932 45.288 365.068 43.896C364.228 42.504 363.808 40.92 363.808 39.144C363.808 37.296 364.24 35.652 365.104 34.212C365.968 32.772 367.144 31.656 368.632 30.864C370.12 30.048 371.764 29.64 373.564 29.64C375.364 29.64 376.984 30.048 378.424 30.864C379.888 31.656 381.04 32.772 381.88 34.212C382.72 35.628 383.14 37.224 383.14 39C383.14 39.048 383.14 39.108 383.14 39.18C383.14 39.252 383.14 39.312 383.14 39.36H368.74C368.788 40.224 369.028 41.004 369.46 41.7C369.916 42.372 370.492 42.912 371.188 43.32C371.908 43.704 372.7 43.896 373.564 43.896C374.404 43.896 375.16 43.728 375.832 43.392C376.504 43.056 376.972 42.612 377.236 42.06H382.6C382.48 43.068 382.024 44.064 381.232 45.048C380.464 46.008 379.408 46.8 378.064 47.424C376.744 48.048 375.232 48.36 373.528 48.36ZM378.424 38.64C378.376 37.776 378.136 37.008 377.704 36.336C377.272 35.64 376.696 35.1 375.976 34.716C375.28 34.308 374.488 34.104 373.6 34.104C372.736 34.104 371.944 34.308 371.224 34.716C370.528 35.1 369.952 35.64 369.496 36.336C369.064 37.008 368.824 37.776 368.776 38.64H378.424ZM387.295 48V30H392.299V36.156C392.611 34.332 393.295 32.796 394.351 31.548C395.431 30.276 396.823 29.64 398.527 29.64C399.751 29.64 400.759 29.904 401.551 30.432C402.367 30.96 402.955 31.728 403.315 32.736C403.699 33.744 403.891 34.992 403.891 36.48V38.208H398.887V37.488C398.887 36.48 398.623 35.712 398.095 35.184C397.591 34.632 396.895 34.356 396.007 34.356C395.287 34.356 394.651 34.548 394.099 34.932C393.547 35.292 393.103 35.808 392.767 36.48C392.455 37.152 392.299 37.884 392.299 38.676V48H387.295ZM406.701 48V30H411.705V36.228C412.041 34.236 412.785 32.64 413.937 31.44C415.113 30.24 416.541 29.64 418.221 29.64C419.565 29.64 420.741 29.976 421.749 30.648C422.757 31.32 423.537 32.28 424.089 33.528C424.641 34.752 424.917 36.18 424.917 37.812V48H419.877V38.604C419.853 37.308 419.469 36.264 418.725 35.472C417.981 34.68 417.009 34.284 415.809 34.284C415.041 34.284 414.345 34.476 413.721 34.86C413.097 35.244 412.605 35.76 412.245 36.408C411.885 37.056 411.705 37.788 411.705 38.604V48H406.701ZM430.466 48V30H435.47V48H430.466ZM432.806 27.948L429.818 21.18H436.19L433.166 27.948H432.806ZM449.969 48.36C447.617 48.36 445.877 47.856 444.749 46.848C443.621 45.816 443.057 44.316 443.057 42.348V34.5H438.989V30H441.365C442.109 30 442.673 29.808 443.057 29.424C443.441 29.016 443.633 28.452 443.633 27.732V25.68H448.061V30H454.541V34.5H448.061V41.088C448.061 42.024 448.301 42.696 448.781 43.104C449.261 43.512 450.041 43.716 451.121 43.716C452.081 43.716 453.221 43.608 454.541 43.392V47.892C453.821 48.012 453.041 48.12 452.201 48.216C451.361 48.312 450.617 48.36 449.969 48.36ZM463.552 55.56C462.304 55.56 461.152 55.296 460.096 54.768C459.04 54.264 458.176 53.472 457.504 52.392C456.856 51.336 456.532 50.016 456.532 48.432V47.496H461.248V48.828C461.248 49.356 461.344 49.8 461.536 50.16C461.752 50.544 462.028 50.832 462.364 51.024C462.724 51.24 463.12 51.348 463.552 51.348C464.2 51.348 464.716 51.144 465.1 50.736C465.508 50.352 465.712 49.848 465.712 49.224V48.972C465.712 48.66 465.664 48.36 465.568 48.072C465.496 47.784 465.388 47.484 465.244 47.172L456.244 30H461.824L467.44 41.34C467.488 41.412 467.512 41.484 467.512 41.556C467.536 41.604 467.56 41.676 467.584 41.772C467.608 41.676 467.62 41.604 467.62 41.556C467.644 41.484 467.68 41.412 467.728 41.34L472.12 30H477.304L470.824 45.552C470.656 45.96 470.536 46.32 470.464 46.632C470.416 46.944 470.392 47.352 470.392 47.856V49.08C470.392 50.424 470.08 51.576 469.456 52.536C468.856 53.52 468.04 54.264 467.008 54.768C465.976 55.296 464.824 55.56 463.552 55.56Z" fill="black"/>
<path d="M25.8517 14L47.4366 51.5H4.26692L25.8517 14Z" fill="#365F5C"/>
</svg>
