<svg width="209" height="25" viewBox="0 0 209 25" fill="none" xmlns="http://www.w3.org/2000/svg">
<path d="M26.4618 20.3C25.3018 20.3 24.2551 20 23.3218 19.4C22.3885 18.7867 21.6551 17.9267 21.1218 16.82C20.5885 15.7133 20.3218 14.44 20.3218 13C20.3218 11.6133 20.6285 10.3667 21.2418 9.26C21.8685 8.14 22.7218 7.26667 23.8018 6.64C24.8951 6.01333 26.1285 5.7 27.5018 5.7C28.6618 5.7 29.7218 5.93333 30.6818 6.4C31.6551 6.85333 32.4551 7.48667 33.0818 8.3C33.7218 9.11333 34.1351 10.0467 34.3218 11.1H30.9618C30.7485 10.3533 30.3418 9.76667 29.7418 9.34C29.1418 8.91333 28.4285 8.7 27.6018 8.7C26.8151 8.7 26.1151 8.88667 25.5018 9.26C24.9018 9.63333 24.4285 10.1533 24.0818 10.82C23.7485 11.4867 23.5818 12.2467 23.5818 13.1C23.5818 13.9667 23.7551 14.74 24.1018 15.42C24.4485 16.1 24.9351 16.6333 25.5618 17.02C26.1885 17.3933 26.9018 17.58 27.7018 17.58C28.4751 17.58 29.1618 17.4 29.7618 17.04C30.3751 16.6667 30.8551 16.1667 31.2018 15.54C31.5618 14.9 31.7418 14.1933 31.7418 13.42V13.2H27.6418V12.8H34.4218V20H31.7418V14.76C31.5285 16.4667 30.9618 17.82 30.0418 18.82C29.1351 19.8067 27.9418 20.3 26.4618 20.3ZM37.4662 20V5.8H40.2462V20H37.4662ZM45.5209 20.24C44.6275 20.24 43.9075 20.0267 43.3609 19.6C42.8142 19.16 42.5409 18.54 42.5409 17.74C42.5409 16.9667 42.7942 16.3667 43.3009 15.94C43.8209 15.5133 44.4209 15.22 45.1009 15.06C45.7942 14.9 46.5742 14.78 47.4409 14.7C48.1209 14.66 48.6475 14.5733 49.0209 14.44C49.4075 14.3067 49.6009 14.0533 49.6009 13.68C49.6009 13.1467 49.4142 12.74 49.0409 12.46C48.6809 12.1667 48.2409 12.02 47.7209 12.02C47.1075 12.02 46.6075 12.1867 46.2209 12.52C45.8342 12.8533 45.6075 13.32 45.5409 13.92H42.9609C43.0009 13.0533 43.2409 12.3133 43.6809 11.7C44.1209 11.0733 44.6942 10.6 45.4009 10.28C46.1209 9.96 46.9075 9.8 47.7609 9.8C48.6142 9.8 49.3742 9.96 50.0409 10.28C50.7075 10.6 51.2275 11.0667 51.6009 11.68C51.9742 12.2933 52.1609 13.0267 52.1609 13.88V17.56H53.3209V20H49.6209V16.4C49.3942 17.52 48.9275 18.44 48.2209 19.16C47.5275 19.88 46.6275 20.24 45.5209 20.24ZM46.9009 18.08C47.3809 18.08 47.8275 17.94 48.2409 17.66C48.6542 17.38 48.9809 17.02 49.2209 16.58C49.4742 16.1267 49.6009 15.6467 49.6009 15.14L49.6209 14.52C49.4609 14.6667 49.2609 14.7733 49.0209 14.84C48.7942 14.9067 48.4742 14.9733 48.0609 15.04C48.0342 15.04 48.0075 15.0467 47.9809 15.06C47.9542 15.06 47.9342 15.06 47.9209 15.06C47.0809 15.14 46.4475 15.3133 46.0209 15.58C45.5942 15.8333 45.3809 16.22 45.3809 16.74C45.3809 17.1933 45.5209 17.5333 45.8009 17.76C46.0809 17.9733 46.4475 18.08 46.9009 18.08ZM58.774 20.2C57.9873 20.2 57.274 19.9733 56.634 19.52C56.0073 19.0667 55.5073 18.4467 55.134 17.66C54.774 16.86 54.594 15.9733 54.594 15C54.594 14.0267 54.774 13.1467 55.134 12.36C55.5073 11.56 56.0073 10.9333 56.634 10.48C57.274 10.0267 57.9873 9.8 58.774 9.8C59.694 9.8 60.4873 10.14 61.154 10.82C61.8207 11.4867 62.274 12.3733 62.514 13.48V5.8H65.294V20H62.514V16.52C62.274 17.6267 61.8207 18.52 61.154 19.2C60.4873 19.8667 59.694 20.2 58.774 20.2ZM60.014 17.62C60.494 17.62 60.9273 17.5067 61.314 17.28C61.714 17.0533 62.0207 16.74 62.234 16.34C62.4607 15.94 62.574 15.4933 62.574 15C62.574 14.5067 62.4607 14.06 62.234 13.66C62.0207 13.26 61.714 12.9467 61.314 12.72C60.9273 12.48 60.494 12.36 60.014 12.36C59.534 12.36 59.094 12.48 58.694 12.72C58.3073 12.9467 58.0007 13.26 57.774 13.66C57.5473 14.06 57.434 14.5067 57.434 15C57.434 15.4933 57.5473 15.94 57.774 16.34C58.0007 16.74 58.3073 17.0533 58.694 17.28C59.094 17.5067 59.534 17.62 60.014 17.62ZM73.0995 20.2C72.0861 20.2 71.1661 19.98 70.3395 19.54C69.5261 19.1 68.8795 18.4933 68.3995 17.72C67.9328 16.9467 67.6995 16.0667 67.6995 15.08C67.6995 14.0533 67.9395 13.14 68.4195 12.34C68.8995 11.54 69.5528 10.92 70.3795 10.48C71.2061 10.0267 72.1195 9.8 73.1195 9.8C74.1195 9.8 75.0195 10.0267 75.8195 10.48C76.6328 10.92 77.2728 11.54 77.7395 12.34C78.2061 13.1267 78.4395 14.0133 78.4395 15C78.4395 15.0267 78.4395 15.06 78.4395 15.1C78.4395 15.14 78.4395 15.1733 78.4395 15.2H70.4395C70.4661 15.68 70.5995 16.1133 70.8395 16.5C71.0928 16.8733 71.4128 17.1733 71.7995 17.4C72.1995 17.6133 72.6395 17.72 73.1195 17.72C73.5861 17.72 74.0061 17.6267 74.3795 17.44C74.7528 17.2533 75.0128 17.0067 75.1595 16.7H78.1395C78.0728 17.26 77.8195 17.8133 77.3795 18.36C76.9528 18.8933 76.3661 19.3333 75.6195 19.68C74.8861 20.0267 74.0461 20.2 73.0995 20.2ZM75.8195 14.8C75.7928 14.32 75.6595 13.8933 75.4195 13.52C75.1795 13.1333 74.8595 12.8333 74.4595 12.62C74.0728 12.3933 73.6328 12.28 73.1395 12.28C72.6595 12.28 72.2195 12.3933 71.8195 12.62C71.4328 12.8333 71.1128 13.1333 70.8595 13.52C70.6195 13.8933 70.4861 14.32 70.4595 14.8H75.8195ZM85.1441 20.28C83.5841 20.28 82.3108 19.9267 81.3241 19.22C80.3508 18.5133 79.8175 17.5267 79.7241 16.26H82.6041C82.6975 16.8333 82.9641 17.2667 83.4041 17.56C83.8441 17.8533 84.3908 18 85.0441 18C85.4041 18 85.7441 17.9533 86.0641 17.86C86.3841 17.7667 86.6441 17.62 86.8441 17.42C87.0441 17.2067 87.1441 16.9467 87.1441 16.64C87.1441 16.3333 87.0508 16.0933 86.8641 15.92C86.6908 15.7333 86.4241 15.5867 86.0641 15.48C85.7175 15.3733 85.2441 15.2733 84.6441 15.18C84.5641 15.1667 84.4775 15.1533 84.3841 15.14C84.3041 15.1267 84.2175 15.1133 84.1241 15.1C83.1775 14.98 82.4108 14.8333 81.8241 14.66C81.2508 14.4733 80.8175 14.2267 80.5241 13.92C80.2441 13.6 80.1041 13.1867 80.1041 12.68C80.1041 12.0667 80.2975 11.54 80.6841 11.1C81.0708 10.6467 81.6041 10.3067 82.2841 10.08C82.9775 9.84 83.7641 9.72 84.6441 9.72C86.1775 9.72 87.3975 10.0733 88.3041 10.78C89.2241 11.4867 89.7241 12.4867 89.8041 13.78H87.0441C87.0041 13.1933 86.7775 12.7533 86.3641 12.46C85.9508 12.1667 85.4441 12.02 84.8441 12.02C84.3108 12.02 83.8508 12.1467 83.4641 12.4C83.0775 12.64 82.8841 12.9867 82.8841 13.44C82.8841 13.6933 82.9641 13.9133 83.1241 14.1C83.2975 14.2867 83.5575 14.4467 83.9041 14.58C84.2508 14.7 84.7041 14.8 85.2641 14.88C85.3575 14.8933 85.4508 14.9067 85.5441 14.92C85.6508 14.9333 85.7575 14.9467 85.8641 14.96C85.9175 14.9733 85.9708 14.98 86.0241 14.98C86.0775 14.98 86.1308 14.9867 86.1841 15C87.0241 15.1067 87.7108 15.26 88.2441 15.46C88.7775 15.66 89.1708 15.92 89.4241 16.24C89.6775 16.5467 89.8041 16.94 89.8041 17.42C89.8041 18.02 89.6041 18.5333 89.2041 18.96C88.8041 19.3867 88.2508 19.7133 87.5441 19.94C86.8375 20.1667 86.0375 20.28 85.1441 20.28ZM101.734 20.2C100.694 20.2 99.7541 19.9733 98.9141 19.52C98.0875 19.0667 97.4341 18.4467 96.9541 17.66C96.4875 16.86 96.2541 15.9733 96.2541 15C96.2541 14.0133 96.4875 13.1267 96.9541 12.34C97.4341 11.5533 98.0875 10.9333 98.9141 10.48C99.7541 10.0267 100.694 9.8 101.734 9.8C102.761 9.8 103.687 10.0267 104.514 10.48C105.354 10.9333 106.014 11.56 106.494 12.36C106.974 13.1467 107.214 14.0267 107.214 15C107.214 15.9733 106.974 16.86 106.494 17.66C106.014 18.4467 105.354 19.0667 104.514 19.52C103.687 19.9733 102.761 20.2 101.734 20.2ZM101.734 17.62C102.214 17.62 102.654 17.5067 103.054 17.28C103.454 17.0533 103.767 16.74 103.994 16.34C104.234 15.94 104.354 15.4933 104.354 15C104.354 14.5067 104.234 14.06 103.994 13.66C103.767 13.26 103.454 12.9467 103.054 12.72C102.654 12.48 102.214 12.36 101.734 12.36C101.241 12.36 100.794 12.48 100.394 12.72C99.9941 12.9467 99.6741 13.26 99.4341 13.66C99.2075 14.06 99.0941 14.5067 99.0941 15C99.0941 15.4933 99.2075 15.94 99.4341 16.34C99.6741 16.74 99.9941 17.0533 100.394 17.28C100.794 17.5067 101.241 17.62 101.734 17.62ZM110.281 20V12.5H108.421V10H110.281V9C110.281 8.25333 110.448 7.59333 110.781 7.02C111.115 6.44667 111.595 6 112.221 5.68C112.861 5.36 113.621 5.2 114.501 5.2C115.301 5.2 116.015 5.34667 116.641 5.64C117.268 5.92 117.761 6.33333 118.121 6.88C118.495 7.42667 118.681 8.08667 118.681 8.86H116.061V8.7C116.048 8.31333 115.895 8.00667 115.601 7.78C115.308 7.54 114.941 7.42 114.501 7.42C114.008 7.42 113.608 7.56 113.301 7.84C112.995 8.10667 112.841 8.5 112.841 9.02C112.841 9.12667 112.841 9.23333 112.841 9.34C112.841 9.44667 112.848 9.56 112.861 9.68C112.875 9.73333 112.881 9.78667 112.881 9.84C112.895 9.89333 112.908 9.94667 112.921 10H117.201V12.5H113.061V20H110.281ZM124.29 20V6H133.95V8.78H127.43V12.8H131.87V13.2H127.43V17.22H134.53V20H124.29ZM141.563 20.2C140.256 20.2 139.289 19.92 138.663 19.36C138.036 18.7867 137.723 17.9533 137.723 16.86V12.5H135.463V10H136.783C137.196 10 137.509 9.89333 137.723 9.68C137.936 9.45333 138.043 9.14 138.043 8.74V7.6H140.503V10H144.103V12.5H140.503V16.16C140.503 16.68 140.636 17.0533 140.903 17.28C141.169 17.5067 141.603 17.62 142.203 17.62C142.736 17.62 143.369 17.56 144.103 17.44V19.94C143.703 20.0067 143.269 20.0667 142.803 20.12C142.336 20.1733 141.923 20.2 141.563 20.2ZM150.873 20.2C149.86 20.2 148.94 19.98 148.113 19.54C147.3 19.1 146.653 18.4933 146.173 17.72C145.706 16.9467 145.473 16.0667 145.473 15.08C145.473 14.0533 145.713 13.14 146.193 12.34C146.673 11.54 147.326 10.92 148.153 10.48C148.98 10.0267 149.893 9.8 150.893 9.8C151.893 9.8 152.793 10.0267 153.593 10.48C154.406 10.92 155.046 11.54 155.513 12.34C155.98 13.1267 156.213 14.0133 156.213 15C156.213 15.0267 156.213 15.06 156.213 15.1C156.213 15.14 156.213 15.1733 156.213 15.2H148.213C148.24 15.68 148.373 16.1133 148.613 16.5C148.866 16.8733 149.186 17.1733 149.573 17.4C149.973 17.6133 150.413 17.72 150.893 17.72C151.36 17.72 151.78 17.6267 152.153 17.44C152.526 17.2533 152.786 17.0067 152.933 16.7H155.913C155.846 17.26 155.593 17.8133 155.153 18.36C154.726 18.8933 154.14 19.3333 153.393 19.68C152.66 20.0267 151.82 20.2 150.873 20.2ZM153.593 14.8C153.566 14.32 153.433 13.8933 153.193 13.52C152.953 13.1333 152.633 12.8333 152.233 12.62C151.846 12.3933 151.406 12.28 150.913 12.28C150.433 12.28 149.993 12.3933 149.593 12.62C149.206 12.8333 148.886 13.1333 148.633 13.52C148.393 13.8933 148.26 14.32 148.233 14.8H153.593ZM158.521 20V10H161.301V13.42C161.474 12.4067 161.854 11.5533 162.441 10.86C163.041 10.1533 163.814 9.8 164.761 9.8C165.441 9.8 166.001 9.94667 166.441 10.24C166.894 10.5333 167.221 10.96 167.421 11.52C167.634 12.08 167.741 12.7733 167.741 13.6V14.56H164.961V14.16C164.961 13.6 164.814 13.1733 164.521 12.88C164.241 12.5733 163.854 12.42 163.361 12.42C162.961 12.42 162.608 12.5267 162.301 12.74C161.994 12.94 161.748 13.2267 161.561 13.6C161.388 13.9733 161.301 14.38 161.301 14.82V20H158.521ZM169.302 20V10H172.082V13.46C172.269 12.3533 172.682 11.4667 173.322 10.8C173.975 10.1333 174.769 9.8 175.702 9.8C176.449 9.8 177.102 9.98667 177.662 10.36C178.222 10.7333 178.655 11.2667 178.962 11.96C179.269 12.64 179.422 13.4333 179.422 14.34V20H176.622V14.78C176.609 14.06 176.395 13.48 175.982 13.04C175.569 12.6 175.029 12.38 174.362 12.38C173.935 12.38 173.549 12.4867 173.202 12.7C172.855 12.9133 172.582 13.2 172.382 13.56C172.182 13.92 172.082 14.3267 172.082 14.78V20H169.302ZM182.505 20V10H185.285V20H182.505ZM183.805 8.86L182.145 5.1H185.685L184.005 8.86H183.805ZM193.34 20.2C192.033 20.2 191.067 19.92 190.44 19.36C189.813 18.7867 189.5 17.9533 189.5 16.86V12.5H187.24V10H188.56C188.973 10 189.287 9.89333 189.5 9.68C189.713 9.45333 189.82 9.14 189.82 8.74V7.6H192.28V10H195.88V12.5H192.28V16.16C192.28 16.68 192.413 17.0533 192.68 17.28C192.947 17.5067 193.38 17.62 193.98 17.62C194.513 17.62 195.147 17.56 195.88 17.44V19.94C195.48 20.0067 195.047 20.0667 194.58 20.12C194.113 20.1733 193.7 20.2 193.34 20.2ZM200.886 24.2C200.193 24.2 199.553 24.0533 198.966 23.76C198.379 23.48 197.899 23.04 197.526 22.44C197.166 21.8533 196.986 21.12 196.986 20.24V19.72H199.606V20.46C199.606 20.7533 199.659 21 199.766 21.2C199.886 21.4133 200.039 21.5733 200.226 21.68C200.426 21.8 200.646 21.86 200.886 21.86C201.246 21.86 201.533 21.7467 201.746 21.52C201.973 21.3067 202.086 21.0267 202.086 20.68V20.54C202.086 20.3667 202.059 20.2 202.006 20.04C201.966 19.88 201.906 19.7133 201.826 19.54L196.826 10H199.926L203.046 16.3C203.073 16.34 203.086 16.38 203.086 16.42C203.099 16.4467 203.113 16.4867 203.126 16.54C203.139 16.4867 203.146 16.4467 203.146 16.42C203.159 16.38 203.179 16.34 203.206 16.3L205.646 10H208.526L204.926 18.64C204.833 18.8667 204.766 19.0667 204.726 19.24C204.699 19.4133 204.686 19.64 204.686 19.92V20.6C204.686 21.3467 204.513 21.9867 204.166 22.52C203.833 23.0667 203.379 23.48 202.806 23.76C202.233 24.0533 201.593 24.2 200.886 24.2Z" fill="black"/>
<path d="M10 5L18.6603 20H1.33975L10 5Z" fill="#365F5C"/>
</svg>
